<svg width="15" height="17" viewBox="0 0 15 17" fill="none" xmlns="http://www.w3.org/2000/svg">
<path d="M0.260875 1.228C1.17387 3.73712 2.34787 6.12684 4.17387 8.15809C4.30437 8.27757 4.43475 8.39706 4.56525 8.63602C4.69563 8.75551 4.69563 8.875 4.56525 8.99449C4.43475 9.11397 4.30437 9.23345 4.17387 9.47242C3.913 9.7114 3.65212 10.0698 3.39125 10.3088C1.82612 12.3401 0.782625 14.6103 -5.22279e-09 16.8805L0 17C4.17387 12.9375 9.13037 10.0698 15 8.875C9.13037 7.68015 4.17387 4.8125 -7.1031e-07 0.75C0.130374 0.75 0.130375 0.989 0.260875 1.228Z" fill="#17181B"/>
</svg>
