<svg width="18" height="19" viewBox="0 0 18 19" fill="none" xmlns="http://www.w3.org/2000/svg">
<rect y="0.5" width="18" height="18" rx="2" fill="#17181B"/>
<g clip-path="url(#clip0_688_15313)">
<path d="M6.42852 14.7143C6.17108 14.7098 5.91796 14.6473 5.68795 14.5316C5.45795 14.4158 5.25698 14.2498 5.09995 14.0457L3.21424 11.9114C3.13873 11.8268 3.08079 11.7279 3.04376 11.6207C3.00674 11.5135 2.99137 11.4 2.99854 11.2867C3.00572 11.1735 3.0353 11.0629 3.08557 10.9612C3.13583 10.8595 3.20579 10.7687 3.29138 10.6943C3.46306 10.5455 3.68679 10.4709 3.9134 10.487C4.14002 10.5031 4.35099 10.6085 4.49995 10.78L6.26566 12.7771C6.28287 12.8019 6.30601 12.8219 6.33297 12.8354C6.35992 12.8489 6.38983 12.8554 6.41995 12.8543C6.44914 12.855 6.47812 12.8492 6.50481 12.8373C6.53149 12.8255 6.5552 12.8079 6.57424 12.7857L13.5257 5.55142C13.6865 5.40677 13.8961 5.32828 14.1124 5.33171C14.3287 5.33514 14.5357 5.42022 14.6919 5.5699C14.8481 5.71958 14.9419 5.92277 14.9545 6.13873C14.9671 6.35468 14.8976 6.56743 14.76 6.73428L7.73138 14.1314C7.5711 14.3192 7.37102 14.4689 7.14567 14.5697C6.92031 14.6706 6.67534 14.7199 6.42852 14.7143Z" fill="white"/>
</g>
<defs>
<clipPath id="clip0_688_15313">
<rect width="12" height="12" fill="white" transform="translate(3 4)"/>
</clipPath>
</defs>
</svg>
