<svg width="32" height="32" viewBox="0 0 32 32" fill="none" xmlns="http://www.w3.org/2000/svg">
<g id="user (1) 1" clip-path="url(#clip0_554_6646)">
<g id="Group 24">
<g id="Group">
<g id="Group_2">
<path id="Vector" d="M16.0024 4.56519C13.3172 4.56519 11.1328 6.74951 11.1328 9.43477C11.1328 12.12 13.3171 14.3044 16.0024 14.3044C18.6877 14.3044 20.872 12.12 20.872 9.43477C20.872 6.74958 18.6877 4.56519 16.0024 4.56519ZM16.0024 12.913C14.0852 12.913 12.5242 11.352 12.5242 9.43477C12.5242 7.51757 14.0852 5.95653 16.0024 5.95653C17.9196 5.95653 19.4806 7.51757 19.4806 9.43477C19.4806 11.352 17.9197 12.913 16.0024 12.913Z" fill="#6D6D6D"/>
</g>
</g>
<g id="Group_3">
<g id="Group_4">
<path id="Vector_2" d="M25.74 10.1304C23.8228 10.1304 22.2617 11.6914 22.2617 13.6086C22.2617 15.5258 23.8228 17.0868 25.74 17.0868C27.6571 17.0868 29.2182 15.5258 29.2182 13.6086C29.2182 11.6914 27.6571 10.1304 25.74 10.1304ZM25.74 15.6956C24.5893 15.6956 23.653 14.7592 23.653 13.6086C23.653 12.458 24.5893 11.5217 25.74 11.5217C26.8906 11.5217 27.8269 12.458 27.8269 13.6086C27.8269 14.7592 26.8905 15.6956 25.74 15.6956Z" fill="#6D6D6D"/>
</g>
</g>
<g id="Group_5">
<g id="Group_6">
<path id="Vector_3" d="M6.36105 10.1304C4.44242 10.1304 2.88281 11.6914 2.88281 13.6086C2.88281 15.5258 4.44385 17.0868 6.36105 17.0868C8.27824 17.0868 9.83929 15.5258 9.83929 13.6086C9.83929 11.6914 8.27961 10.1304 6.36105 10.1304ZM6.36105 15.6956C5.21042 15.6956 4.27409 14.7592 4.27409 13.6086C4.27409 12.458 5.21042 11.5217 6.36105 11.5217C7.51168 11.5217 8.448 12.458 8.448 13.6086C8.448 14.7592 7.51161 15.6956 6.36105 15.6956Z" fill="#6D6D6D"/>
</g>
</g>
<g id="Group_7">
<g id="Group_8">
<path id="Vector_4" d="M16.0005 15.6958C11.0141 15.6958 6.95703 19.7528 6.95703 24.7393C6.95703 25.1233 7.2687 25.435 7.6527 25.435C8.0367 25.435 8.34838 25.1233 8.34838 24.7393C8.34838 20.5195 11.7807 17.0871 16.0005 17.0871C20.2203 17.0871 23.6527 20.5195 23.6527 24.7393C23.6527 25.1233 23.9643 25.435 24.3483 25.435C24.7323 25.435 25.044 25.1233 25.044 24.7393C25.044 19.7528 20.987 15.6958 16.0005 15.6958Z" fill="#6D6D6D"/>
</g>
</g>
<g id="Group_9">
<g id="Group_10">
<path id="Vector_5" d="M25.7415 18.4783C24.5965 18.4783 23.4751 18.7913 22.4984 19.3826C22.1714 19.583 22.0656 20.0101 22.2646 20.3385C22.4663 20.6668 22.8921 20.7712 23.2204 20.5722C23.9787 20.1116 24.8496 19.8696 25.7415 19.8696C28.4267 19.8696 30.6111 22.0539 30.6111 24.7391C30.6111 25.1231 30.9227 25.4348 31.3067 25.4348C31.6907 25.4348 32.0024 25.1231 32.0024 24.7391C32.0024 21.2873 29.1933 18.4783 25.7415 18.4783Z" fill="#6D6D6D"/>
</g>
</g>
<g id="Group_11">
<g id="Group_12">
<path id="Vector_6" d="M9.50262 19.3812C8.5273 18.7913 7.40595 18.4783 6.26087 18.4783C2.80904 18.4783 0 21.2873 0 24.7391C0 25.1231 0.311674 25.4348 0.695674 25.4348C1.07967 25.4348 1.39135 25.1231 1.39135 24.7391C1.39128 22.0539 3.57567 19.8696 6.26087 19.8696C7.15271 19.8696 8.02363 20.1116 8.78054 20.5708C9.10747 20.7697 9.53602 20.6654 9.73636 20.337C9.93671 20.0087 9.83093 19.5816 9.50262 19.3812Z" fill="#6D6D6D"/>
</g>
</g>
</g>
</g>
<defs>
<clipPath id="clip0_554_6646">
<rect width="32" height="32" fill="white"/>
</clipPath>
</defs>
</svg>
