<svg width="32" height="32" viewBox="0 0 32 32" fill="none" xmlns="http://www.w3.org/2000/svg">
<g id="dollar-sign 1">
<g id="Group">
<g id="Group_2">
<path id="Vector" d="M14.9811 22.7942C12.3141 22.7942 10.1063 21.804 9.02865 21.2137C8.85847 21.1202 8.65562 21.1113 8.47667 21.1885C8.29899 21.2658 8.16714 21.4202 8.11876 21.6087L6.98848 26.0169C6.91747 26.2938 7.04251 26.5839 7.29304 26.7221C8.82649 27.5698 11.1581 28.2003 13.3742 28.3824V31.3721C13.3742 31.7193 13.6549 32 14.0021 32H17.7316C18.0789 32 18.3596 31.7193 18.3596 31.3721V28.0119C22.4294 27.146 25.0278 24.2667 25.0278 20.5593C25.0278 16.8305 23.0322 14.5347 18.3589 12.885C15.3773 11.8099 14.215 11.0777 14.215 10.2734C14.215 9.30759 15.1671 8.75365 16.8267 8.75365C19.3649 8.75365 21.0441 9.56055 21.9803 10.0108C22.1492 10.0919 22.3445 10.0937 22.5147 10.0152C22.6849 9.9367 22.8111 9.7873 22.8595 9.60638L23.9904 5.34882C24.0689 5.05303 23.9232 4.7435 23.6444 4.61662C22.5958 4.13749 20.953 3.50446 18.5102 3.3456V0.627949C18.5102 0.280666 18.2296 0 17.8823 0H14.1893C13.842 0 13.5613 0.280666 13.5613 0.627949V3.69738C9.61965 4.6142 7.19445 7.34212 7.19445 10.9139C7.19445 15.4025 11.047 17.2744 14.4046 18.4036C17.3943 19.4002 18.0065 20.1964 18.0065 21.0862C18.0072 22.3452 16.4442 22.7942 14.9811 22.7942ZM14.8034 17.2123C10.3499 15.7147 8.45034 13.8308 8.45034 10.9139C8.45034 7.78604 10.6388 5.50965 14.3042 4.82524C14.6018 4.76936 14.8165 4.51006 14.8165 4.20792V1.25659H17.2536V3.94422C17.2536 4.284 17.5237 4.56155 17.8628 4.57217C20.0468 4.63752 21.5464 5.09333 22.6378 5.54671L21.8384 8.55842C20.7677 8.0831 19.1194 7.49844 16.8273 7.49844C13.9757 7.49844 12.9597 8.93202 12.9597 10.274C12.9597 11.9557 14.7079 12.904 17.9375 14.0688C22.1366 15.5507 23.7725 17.3712 23.7725 20.56C23.7725 23.8272 21.4188 26.2462 17.6298 26.8728C17.3271 26.9225 17.1041 27.1849 17.1041 27.492V30.7448H14.6307V27.794C14.6307 27.4581 14.3663 27.1818 14.031 27.1667C11.6498 27.0599 9.57255 26.4282 8.33108 25.8429L9.1411 22.6811C10.458 23.3059 12.5408 24.0519 14.9823 24.0519C17.584 24.0519 19.2644 22.8882 19.2644 21.088C19.2631 19.1049 17.4797 18.1047 14.8034 17.2123Z" fill="#6D6D6D"/>
</g>
</g>
</g>
</svg>
