<svg width="32" height="32" viewBox="0 0 32 32" fill="none" xmlns="http://www.w3.org/2000/svg">
<g clip-path="url(#clip0_554_6766)">
<mask id="path-1-inside-1_554_6766" fill="white">
<path fill-rule="evenodd" clip-rule="evenodd" d="M7.66699 8C7.11499 8 6.66699 7.552 6.66699 7V4.66675H3.66675C2.74805 4.66675 2 5.41455 2 6.33325V10.6667H30V6.33325C30 5.41455 29.252 4.66675 28.3333 4.66675H25.333V7C25.333 7.552 24.885 8 24.333 8C23.781 8 23.333 7.552 23.333 7V4.66675H8.66699V7C8.66699 7.552 8.21899 8 7.66699 8ZM23.333 2.66675H8.66699V1C8.66699 0.447998 8.21899 0 7.66699 0C7.11499 0 6.66699 0.447998 6.66699 1V2.66675H3.66675C1.64404 2.66675 0 4.31055 0 6.33325V11.6667V28.3333C0 30.356 1.64404 32 3.66675 32H28.3333C30.356 32 32 30.356 32 28.3333V11.6667V6.33325C32 4.31055 30.356 2.66675 28.3333 2.66675H25.333V1C25.333 0.447998 24.885 0 24.333 0C23.781 0 23.333 0.447998 23.333 1V2.66675ZM2 12.6667H30V28.3333C30 29.252 29.252 30 28.3333 30H3.66675C2.74805 30 2 29.252 2 28.3333V12.6667Z"/>
</mask>
<path fill-rule="evenodd" clip-rule="evenodd" d="M7.66699 8C7.11499 8 6.66699 7.552 6.66699 7V4.66675H3.66675C2.74805 4.66675 2 5.41455 2 6.33325V10.6667H30V6.33325C30 5.41455 29.252 4.66675 28.3333 4.66675H25.333V7C25.333 7.552 24.885 8 24.333 8C23.781 8 23.333 7.552 23.333 7V4.66675H8.66699V7C8.66699 7.552 8.21899 8 7.66699 8ZM23.333 2.66675H8.66699V1C8.66699 0.447998 8.21899 0 7.66699 0C7.11499 0 6.66699 0.447998 6.66699 1V2.66675H3.66675C1.64404 2.66675 0 4.31055 0 6.33325V11.6667V28.3333C0 30.356 1.64404 32 3.66675 32H28.3333C30.356 32 32 30.356 32 28.3333V11.6667V6.33325C32 4.31055 30.356 2.66675 28.3333 2.66675H25.333V1C25.333 0.447998 24.885 0 24.333 0C23.781 0 23.333 0.447998 23.333 1V2.66675ZM2 12.6667H30V28.3333C30 29.252 29.252 30 28.3333 30H3.66675C2.74805 30 2 29.252 2 28.3333V12.6667Z" fill="#6D6D6D"/>
<path d="M6.66699 4.66675H6.86699V4.46675H6.66699V4.66675ZM2 10.6667H1.8V10.8667H2V10.6667ZM30 10.6667V10.8667H30.2V10.6667H30ZM25.333 4.66675V4.46675H25.133V4.66675H25.333ZM23.333 4.66675H23.533V4.46675H23.333V4.66675ZM8.66699 4.66675V4.46675H8.46699V4.66675H8.66699ZM23.333 2.66675V2.86675H23.533V2.66675H23.333ZM8.66699 2.66675H8.46699V2.86675H8.66699V2.66675ZM6.66699 2.66675V2.86675H6.86699V2.66675H6.66699ZM25.333 2.66675H25.133V2.86675H25.333V2.66675ZM30 12.6667H30.2V12.4667H30V12.6667ZM2 12.6667V12.4667H1.8V12.6667H2ZM6.46699 7C6.46699 7.66246 7.00453 8.2 7.66699 8.2V7.8C7.22545 7.8 6.86699 7.44155 6.86699 7H6.46699ZM6.46699 4.66675V7H6.86699V4.66675H6.46699ZM3.66675 4.86675H6.66699V4.46675H3.66675V4.86675ZM2.2 6.33325C2.2 5.52505 2.85847 4.86675 3.66675 4.86675V4.46675C2.63763 4.46675 1.8 5.30406 1.8 6.33325H2.2ZM2.2 10.6667V6.33325H1.8V10.6667H2.2ZM30 10.4667H2V10.8667H30V10.4667ZM29.8 6.33325V10.6667H30.2V6.33325H29.8ZM28.3333 4.86675C29.1415 4.86675 29.8 5.52505 29.8 6.33325H30.2C30.2 5.30406 29.3624 4.46675 28.3333 4.46675V4.86675ZM25.333 4.86675H28.3333V4.46675H25.333V4.86675ZM25.133 4.66675V7H25.533V4.66675H25.133ZM25.133 7C25.133 7.44155 24.7746 7.8 24.333 7.8V8.2C24.9955 8.2 25.533 7.66246 25.533 7H25.133ZM24.333 7.8C23.8915 7.8 23.533 7.44155 23.533 7H23.133C23.133 7.66246 23.6705 8.2 24.333 8.2V7.8ZM23.533 7V4.66675H23.133V7H23.533ZM8.66699 4.86675H23.333V4.46675H8.66699V4.86675ZM8.86699 7V4.66675H8.46699V7H8.86699ZM7.66699 8.2C8.32945 8.2 8.86699 7.66246 8.86699 7H8.46699C8.46699 7.44155 8.10854 7.8 7.66699 7.8V8.2ZM23.333 2.46675H8.66699V2.86675H23.333V2.46675ZM8.86699 2.66675V1H8.46699V2.66675H8.86699ZM8.86699 1C8.86699 0.337541 8.32945 -0.2 7.66699 -0.2V0.2C8.10854 0.2 8.46699 0.558455 8.46699 1H8.86699ZM7.66699 -0.2C7.00453 -0.2 6.46699 0.337541 6.46699 1H6.86699C6.86699 0.558455 7.22545 0.2 7.66699 0.2V-0.2ZM6.46699 1V2.66675H6.86699V1H6.46699ZM6.66699 2.46675H3.66675V2.86675H6.66699V2.46675ZM3.66675 2.46675C1.5336 2.46675 -0.2 4.20007 -0.2 6.33325H0.2C0.2 4.42102 1.75448 2.86675 3.66675 2.86675V2.46675ZM-0.2 6.33325V11.6667H0.2V6.33325H-0.2ZM-0.2 11.6667V28.3333H0.2V11.6667H-0.2ZM-0.2 28.3333C-0.2 30.4664 1.53359 32.2 3.66675 32.2V31.8C1.7545 31.8 0.2 30.2455 0.2 28.3333H-0.2ZM3.66675 32.2H28.3333V31.8H3.66675V32.2ZM28.3333 32.2C30.4664 32.2 32.2 30.4664 32.2 28.3333H31.8C31.8 30.2455 30.2455 31.8 28.3333 31.8V32.2ZM32.2 28.3333V11.6667H31.8V28.3333H32.2ZM32.2 11.6667V6.33325H31.8V11.6667H32.2ZM32.2 6.33325C32.2 4.20007 30.4664 2.46675 28.3333 2.46675V2.86675C30.2455 2.86675 31.8 4.42102 31.8 6.33325H32.2ZM28.3333 2.46675H25.333V2.86675H28.3333V2.46675ZM25.133 1V2.66675H25.533V1H25.133ZM24.333 0.2C24.7746 0.2 25.133 0.558455 25.133 1H25.533C25.533 0.337541 24.9955 -0.2 24.333 -0.2V0.2ZM23.533 1C23.533 0.558455 23.8915 0.2 24.333 0.2V-0.2C23.6705 -0.2 23.133 0.337541 23.133 1H23.533ZM23.533 2.66675V1H23.133V2.66675H23.533ZM30 12.4667H2V12.8667H30V12.4667ZM30.2 28.3333V12.6667H29.8V28.3333H30.2ZM28.3333 30.2C29.3624 30.2 30.2 29.3624 30.2 28.3333H29.8C29.8 29.1415 29.1415 29.8 28.3333 29.8V30.2ZM3.66675 30.2H28.3333V29.8H3.66675V30.2ZM1.8 28.3333C1.8 29.3624 2.63759 30.2 3.66675 30.2V29.8C2.8585 29.8 2.2 29.1415 2.2 28.3333H1.8ZM1.8 12.6667V28.3333H2.2V12.6667H1.8Z" fill="#FBFBF7" mask="url(#path-1-inside-1_554_6766)"/>
</g>
<defs>
<clipPath id="clip0_554_6766">
<rect width="32" height="32" fill="white"/>
</clipPath>
</defs>
</svg>
