<svg width="20" height="20" viewBox="0 0 20 20" fill="none" xmlns="http://www.w3.org/2000/svg">
<g clip-path="url(#clip0_138_1790)">
<path d="M10.0004 19.6C4.70699 19.6 0.400391 15.2934 0.400391 10C0.400391 4.70662 4.70699 0.400024 10.0004 0.400024C15.2938 0.400024 19.6004 4.70662 19.6004 10C19.6004 15.2934 15.2938 19.6 10.0004 19.6ZM10.0004 1.60002C5.36859 1.60002 1.60039 5.36822 1.60039 10C1.60039 14.6318 5.36859 18.4 10.0004 18.4C14.6322 18.4 18.4004 14.6318 18.4004 10C18.4004 5.36822 14.6322 1.60002 10.0004 1.60002ZM9.22459 12.8242L14.0246 8.02422C14.259 7.78982 14.259 7.41022 14.0246 7.17582C13.7902 6.94142 13.4106 6.94142 13.1762 7.17582L8.80039 11.5516L6.82459 9.57582C6.59019 9.34142 6.21059 9.34142 5.97619 9.57582C5.74179 9.81022 5.74179 10.1898 5.97619 10.4242L8.37619 12.8242C8.49339 12.9414 8.64679 13 8.80039 13C8.95399 13 9.10739 12.9414 9.22459 12.8242Z" fill="#8C6F3C"/>
</g>
<defs>
<clipPath id="clip0_138_1790">
<rect width="20" height="20" fill="white"/>
</clipPath>
</defs>
</svg>
