<svg width="56" height="56" viewBox="0 0 56 56" fill="none" xmlns="http://www.w3.org/2000/svg">
<g clip-path="url(#clip0_555_6128)">
<path class="logo-border" d="M54.3311 1.66882H1.6687V54.3312H54.3311V1.66882Z" stroke="#FBFBF7" stroke-width="3" stroke-miterlimit="10"/>
<path d="M10.6863 18.9277C10.6863 14.5448 14.0855 11.5507 18.4908 11.5507C22.8961 11.5507 26.2953 14.5373 26.2953 18.9277C26.2953 23.3181 22.8961 26.3048 18.4908 26.3048C14.0855 26.3048 10.6863 23.3107 10.6863 18.9277ZM21.9124 18.9277C21.9124 16.9397 20.5647 15.3568 18.4908 15.3568C16.4169 15.3568 15.0692 16.9397 15.0692 18.9277C15.0692 20.9157 16.4263 22.4987 18.4908 22.4987C20.5553 22.4987 21.9124 20.9157 21.9124 18.9277Z" fill="#FBFBF7"/>
<path d="M11.3267 37.0713C11.3267 32.6659 14.7053 29.6942 19.1667 29.6942C22.9 29.6942 24.7909 31.8745 25.6459 33.8419L21.9256 35.5742C21.5616 34.4542 20.4509 33.5003 19.1667 33.5003C17.0928 33.5003 15.7021 35.0833 15.7021 37.0713C15.7021 39.0593 17.0928 40.6422 19.1667 40.6422C20.4491 40.6422 21.5616 39.679 21.9256 38.5683L25.6459 40.2801C24.8115 42.1841 22.9093 44.4502 19.1667 44.4502C14.7053 44.4483 11.3267 41.4542 11.3267 37.0713Z" fill="#FBFBF7"/>
<path d="M31.7778 26.0581V11.7968H39.3864C42.7221 11.7968 44.5178 14.02 44.5178 16.693C44.5178 19.3661 42.7221 21.5688 39.3864 21.5688H36.0973V26.0581H31.7778ZM40.133 16.693C40.133 15.924 39.5562 15.56 38.8264 15.56H36.0973V17.8H38.8264C39.5618 17.8037 40.133 17.4416 40.133 16.693Z" fill="#FBFBF7"/>
<path d="M30.9861 37.0713C30.9861 32.6659 34.3648 29.6942 38.8261 29.6942C42.5594 29.6942 44.4504 31.8745 45.3053 33.8419L41.585 35.5742C41.221 34.4542 40.1104 33.5003 38.8261 33.5003C36.7522 33.5003 35.3616 35.0833 35.3616 37.0713C35.3616 39.0593 36.7522 40.6422 38.8261 40.6422C40.1085 40.6422 41.221 39.679 41.585 38.5683L45.3053 40.2801C44.4709 42.1859 42.5594 44.4502 38.8261 44.4502C34.3648 44.4483 30.9861 41.4542 30.9861 37.0713Z" fill="#FBFBF7"/>
</g>
<defs>
<clipPath id="clip0_555_6128">
<rect width="56" height="56" fill="white"/>
</clipPath>
</defs>
</svg>
