<svg aria-hidden="true" style="position: absolute; width: 0; height: 0; overflow: hidden;" version="1.1" xmlns="http://www.w3.org/2000/svg" xmlns:xlink="http://www.w3.org/1999/xlink">
  <defs>
<symbol id="icon-welcome" viewBox="0 0 32 32">
<title>welcome</title>
<path d="M26.145 22.989c0.785-2.046 0.736-4.251-0.138-6.211l-2.415-5.298-1.769-3.962c-0.238-0.533-0.669-0.941-1.214-1.15s-1.138-0.194-1.671 0.045c-0.258 0.115-0.49 0.278-0.687 0.485l-0.172 0.179-0.372-0.835c-0.471-1.055-1.712-1.531-2.768-1.061l-0.163 0.072c-0.211 0.094-0.406 0.225-0.58 0.389l-0.155 0.146-0.105-0.185c-0.533-0.945-1.684-1.323-2.676-0.881l-0.163 0.072c-1.055 0.471-1.531 1.712-1.061 2.768l0.159 0.357-0.229 0.023c-0.227 0.023-0.445 0.080-0.647 0.171l-0.163 0.073c-0.511 0.228-0.903 0.641-1.104 1.164s-0.185 1.092 0.043 1.603l2.639 5.919-0.344-0.098c-0.226-0.064-0.457-0.096-0.685-0.096-0.78 0-1.536 0.363-2.014 1.003-0.815 1.094-0.596 2.659 0.489 3.486 0.363 0.315 1.115 0.999 1.423 1.38 1.050 1.302 2.502 2.945 4.436 4.1 2.543 1.521 5.151 1.693 7.695 0.513 2.298-1.064 3.74-2.429 4.41-4.172zM21.234 26.079c-0.956 0.443-1.909 0.665-2.862 0.665-2.586 0-5.173-1.638-7.84-4.945-0.447-0.555-1.613-1.568-1.625-1.579-0.271-0.201-0.453-0.507-0.504-0.854s0.036-0.693 0.246-0.973c0.432-0.579 1.256-0.701 1.836-0.268l3.768 2.643c0.131 0.092 0.289 0.126 0.445 0.1 0.157-0.028 0.293-0.115 0.385-0.245 0.189-0.269 0.123-0.641-0.146-0.831l-2.32-1.626-3.432-7.698c-0.098-0.22-0.104-0.466-0.018-0.691s0.255-0.403 0.476-0.502l0.163-0.073c0.221-0.098 0.467-0.105 0.692-0.019s0.404 0.256 0.502 0.476l2.835 6.359c0.134 0.3 0.487 0.436 0.787 0.301 0.145-0.064 0.257-0.182 0.314-0.331s0.053-0.311-0.012-0.457l-3.796-8.455c-0.203-0.456 0.002-0.991 0.457-1.194l0.162-0.072c0.454-0.204 0.991 0.002 1.194 0.457l3.923 8.799c0.13 0.292 0.495 0.432 0.786 0.302 0.146-0.065 0.257-0.182 0.314-0.331s0.053-0.311-0.012-0.456l-3.161-7.092c-0.168-0.455 0.041-0.954 0.472-1.147l0.163-0.073c0.454-0.204 0.99 0.003 1.194 0.457l3.439 7.715c0.13 0.291 0.494 0.431 0.786 0.301 0.146-0.065 0.257-0.182 0.314-0.331s0.053-0.311-0.012-0.456c-0.001-0.002-2.182-5.047-2.225-5.145-0.107-0.241-0.115-0.511-0.020-0.759s0.281-0.444 0.523-0.551c0.241-0.108 0.511-0.116 0.759-0.020s0.443 0.28 0.551 0.522l1.638 3.673 2.549 5.593c0.743 1.665 0.783 3.545 0.111 5.294-0.553 1.438-1.795 2.589-3.798 3.517z"></path>
<path d="M24.551 5.105c1.52 1.339 2.718 3.035 3.467 4.905 0.118 0.297 0.468 0.455 0.775 0.331 0.305-0.122 0.454-0.469 0.332-0.775-0.819-2.043-2.129-3.896-3.786-5.356-0.113-0.099-0.254-0.148-0.394-0.148-0.165 0-0.33 0.068-0.448 0.202-0.217 0.247-0.193 0.624 0.053 0.841z"></path>
<path d="M3.702 9.605c-0.861 2.332-1.088 4.868-0.656 7.331 0.057 0.32 0.364 0.54 0.691 0.484 0.323-0.057 0.541-0.367 0.484-0.691-0.397-2.255-0.189-4.576 0.599-6.711 0.055-0.149 0.049-0.312-0.018-0.456s-0.186-0.255-0.335-0.31h-0c-0.067-0.025-0.137-0.037-0.207-0.037-0.085 0-0.169 0.019-0.249 0.055-0.145 0.067-0.255 0.186-0.31 0.335z"></path>
</symbol>
    <symbol id="icon-audio-visual" viewBox="0 0 32 32">
<title>audio-visual</title>
<path d="M21.926 7.557c-0.307 0-0.595 0.119-0.811 0.336-0.217 0.217-0.337 0.505-0.337 0.812v14.581c0 0.303 0.122 0.599 0.337 0.813 0.432 0.432 1.189 0.432 1.624 0 0.214-0.214 0.336-0.509 0.336-0.813v-14.581c0-0.302-0.122-0.598-0.336-0.812-0.217-0.217-0.505-0.336-0.813-0.336z"></path>
<path d="M27.852 12.114c-0.306 0-0.595 0.119-0.811 0.337-0.217 0.217-0.337 0.505-0.337 0.812v5.468c0 0.302 0.122 0.598 0.337 0.811 0.432 0.432 1.189 0.432 1.624 0 0.214-0.214 0.336-0.509 0.336-0.811v-5.468c0-0.303-0.122-0.598-0.336-0.812-0.217-0.217-0.507-0.337-0.813-0.337z"></path>
<path d="M17.148 4.148c0-0.303-0.122-0.598-0.337-0.812-0.217-0.217-0.505-0.337-0.812-0.337s-0.595 0.12-0.812 0.337c-0.214 0.214-0.337 0.509-0.337 0.812v23.695c0 0.306 0.12 0.595 0.337 0.813 0.434 0.432 1.19 0.432 1.624 0 0.217-0.217 0.337-0.507 0.337-0.813v-23.695z"></path>
<path d="M3 13.262v5.468c0 0.151 0.029 0.298 0.087 0.439 0.058 0.139 0.142 0.266 0.249 0.372 0.107 0.108 0.232 0.191 0.372 0.249 0.279 0.117 0.601 0.117 0.88 0 0.139-0.057 0.264-0.141 0.372-0.249s0.191-0.233 0.249-0.372c0.058-0.141 0.087-0.288 0.087-0.439v-5.468c0-0.303-0.122-0.598-0.336-0.812s-0.51-0.337-0.812-0.337c-0.303 0-0.598 0.122-0.812 0.337s-0.337 0.509-0.337 0.812z"></path>
<path d="M11.222 23.289v-14.582c0-0.307-0.119-0.595-0.336-0.812s-0.505-0.336-0.812-0.336c-0.309 0-0.597 0.119-0.812 0.334-0.214 0.214-0.337 0.51-0.337 0.812v14.584c0 0.306 0.119 0.595 0.337 0.811 0.433 0.434 1.19 0.435 1.624 0 0.217-0.216 0.336-0.504 0.336-0.811z"></path>
</symbol>
<symbol id="icon-banquet-reception" viewBox="0 0 32 32">
<title>banquet-reception</title>
<path d="M30.435 22.254c-0.043-0.077-0.107-0.141-0.183-0.186s-0.163-0.068-0.252-0.068h-2v-0.514c0-5.893-4.461-10.763-10.183-11.411 0.245-0.335 0.392-0.732 0.425-1.146s-0.049-0.829-0.237-1.199-0.475-0.681-0.829-0.899-0.761-0.332-1.177-0.332-0.823 0.115-1.177 0.332-0.641 0.528-0.829 0.899-0.27 0.785-0.237 1.199c0.033 0.414 0.181 0.811 0.425 1.146-5.722 0.649-10.183 5.519-10.183 11.411v0.514h-2c-0.089 0-0.175 0.023-0.252 0.068s-0.14 0.109-0.183 0.186c-0.044 0.077-0.066 0.164-0.065 0.253s0.026 0.175 0.071 0.251l1.5 2.5c0.044 0.074 0.107 0.135 0.182 0.178s0.16 0.065 0.246 0.065h25c0.086 0 0.171-0.022 0.246-0.065s0.138-0.104 0.182-0.178l1.5-2.5c0.045-0.076 0.070-0.162 0.071-0.251s-0.021-0.176-0.065-0.253zM16 7.5c0.247 0 0.489 0.073 0.695 0.211s0.366 0.333 0.46 0.561c0.095 0.228 0.119 0.48 0.071 0.722s-0.167 0.465-0.342 0.64-0.397 0.294-0.64 0.342c-0.243 0.048-0.494 0.023-0.722-0.071s-0.424-0.255-0.561-0.46-0.211-0.447-0.211-0.695c0-0.331 0.132-0.649 0.367-0.883s0.552-0.366 0.883-0.367zM5 21.486c0-5.782 4.704-10.486 10.486-10.486h1.029c5.782 0 10.486 4.704 10.486 10.486v0.514h-22v-0.514zM28.217 24.5h-24.434l-0.9-1.5h26.234l-0.9 1.5z"></path>
</symbol>
<symbol id="icon-checkmark" viewBox="0 0 32 32">
<title>checkmark</title>
<path d="M16.001 31.361c-8.469 0-15.36-6.891-15.36-15.36s6.891-15.36 15.36-15.36c8.469 0 15.36 6.891 15.36 15.36s-6.891 15.36-15.36 15.36zM16.001 2.561c-7.411 0-13.44 6.029-13.44 13.44s6.029 13.44 13.44 13.44c7.411 0 13.44-6.029 13.44-13.44s-6.029-13.44-13.44-13.44zM14.759 20.519l7.68-7.68c0.375-0.375 0.375-0.982 0-1.357s-0.982-0.375-1.357 0l-7.001 7.001-3.161-3.161c-0.375-0.375-0.982-0.375-1.357 0s-0.375 0.982 0 1.357l3.84 3.84c0.188 0.188 0.433 0.281 0.679 0.281s0.491-0.094 0.679-0.281z"></path>
</symbol>
<symbol id="icon-clock" viewBox="0 0 32 32">
<title>clock</title>
<path d="M24.783 7.432c-2.316-2.317-5.398-3.595-8.676-3.598-2.435 0-4.793 0.715-6.818 2.068s-3.589 3.257-4.521 5.508c-0.932 2.249-1.174 4.701-0.699 7.091 0.475 2.388 1.637 4.561 3.359 6.285 1.721 1.72 3.894 2.881 6.284 3.358 0.797 0.158 1.601 0.237 2.402 0.237 1.6 0 3.19-0.315 4.689-0.936 2.25-0.932 4.155-2.495 5.508-4.519 1.354-2.027 2.069-4.385 2.069-6.819-0.004-3.278-1.281-6.359-3.598-8.675zM26.893 16.107c-0.003 2.88-1.125 5.587-3.163 7.624-2.036 2.038-4.743 3.16-7.624 3.163-2.141 0-4.214-0.629-5.993-1.816-1.78-1.191-3.154-2.866-3.973-4.842s-1.031-4.132-0.614-6.232c0.418-2.1 1.439-4.010 2.953-5.523s3.423-2.535 5.523-2.953c0.701-0.139 1.406-0.208 2.11-0.208 1.407 0 2.804 0.277 4.122 0.823 1.977 0.818 3.651 2.192 4.842 3.972 1.187 1.78 1.816 3.852 1.816 5.993z"></path>
<path d="M20.202 16.678l-3.353-1.119v-6.37c0-0.196-0.079-0.388-0.217-0.526-0.276-0.276-0.775-0.276-1.051 0-0.138 0.138-0.217 0.33-0.217 0.526v6.917c-0.001 0.158 0.047 0.307 0.139 0.434s0.222 0.221 0.367 0.267l3.85 1.286c0.043 0.008 0.087 0.012 0.126 0.012 0.035 0 0.066-0.003 0.091-0.009 0.158-0.001 0.307-0.053 0.434-0.147 0.126-0.092 0.217-0.221 0.266-0.375 0.055-0.176 0.040-0.365-0.040-0.533-0.081-0.167-0.22-0.296-0.392-0.363z"></path>
</symbol>
<symbol id="icon-cocktail" viewBox="0 0 32 32">
<title>cocktail</title>
<path d="M24.417 12.129c3.253 0 5.898-2.646 5.898-5.898s-2.646-5.898-5.898-5.898c-2.891 0-5.397 2.153-5.831 5.008l-0.043 0.283h-16.241l-0.557 1.145 11.141 14.202v7.766c0 0.947-0.769 1.716-1.716 1.716h-4.313v1.214h13.273v-1.214h-4.313c-0.947 0-1.717-0.769-1.717-1.716v-7.766l0.071-0.091 7.424-9.462 0.242 0.118c0.809 0.393 1.677 0.593 2.579 0.593zM19.844 5.219c0.47-2.128 2.393-3.672 4.573-3.672 2.583 0 4.685 2.102 4.685 4.684s-2.102 4.684-4.685 4.684c-0.564 0-1.116-0.1-1.643-0.296l-0.426-0.159 2.895-3.69-0.557-1.145h-4.931l0.090-0.405zM13.493 19.779l-6.112-7.791 0.339-0.19c0.983-0.552 2.17-0.285 2.949 0.661 0.76 0.925 1.755 1.42 2.82 1.42s2.061-0.496 2.8-1.397c0.814-0.987 1.998-1.237 2.976-0.68l0.337 0.191-6.108 7.786zM20.341 11.051l-0.257-0.171c-0.577-0.384-1.238-0.587-1.913-0.587-1.066 0-2.060 0.495-2.8 1.395-0.525 0.639-1.187 0.978-1.883 0.978s-1.357-0.338-1.862-0.953c-0.762-0.925-1.756-1.421-2.821-1.421-0.671 0-1.331 0.202-1.906 0.584l-0.257 0.17-3.301-4.208h20.305l-3.305 4.213z"></path>
</symbol>
<symbol id="icon-consumer-show" viewBox="0 0 32 32">
<title>consumer-show</title>
<path d="M4.165 25.895c0.001 0.374 0.001 0.745 0.125 1.115 0.126 0.381 0.25 0.629 0.508 1.016 0.235 0.232 0.477 0.474 0.837 0.594 0.374 0.125 0.761 0.255 1.134 0.255h18.461c0.372 0 0.76-0.13 1.134-0.255 0.359-0.12 0.602-0.362 0.858-0.62 0.301-0.301 0.479-0.651 0.479-0.936l0.009-0.052c0.121-0.367 0.122-0.736 0.122-1.126l-1.714-14.759c-0.001-0.583-0.53-0.644-0.757-0.644h-3.992v-2.145c0-1.52-0.589-2.881-1.658-3.832-1.302-1.156-2.447-1.672-3.713-1.672-1.381 0-2.779 0.607-3.838 1.665s-1.666 2.458-1.666 3.839v2.012h-3.859c-0.438 0-0.757 0.318-0.757 0.757l-1.715 14.788zM12.009 8.337c0-1.065 0.392-2.044 1.103-2.755 0.723-0.723 1.751-1.137 2.822-1.137s2.098 0.414 2.821 1.137c0.671 0.67 1.104 1.751 1.104 2.755v2.012h-7.85v-2.012zM7.279 11.863h17.441l0.017 0.148 1.583 14.129v0.396c0 0.105-0.044 0.193-0.083 0.271-0.022 0.046-0.048 0.098-0.048 0.125v0.069l-0.048 0.049c-0.065 0.064-0.129 0.103-0.176 0.131-0.018 0.012-0.044 0.027-0.051 0.034v0.167l-0.156-0.021c-0.131 0-0.198 0.004-0.276 0.083l-0.049 0.048h-18.663c-0.129 0-0.301 0-0.468-0.138-0.171-0.034-0.318-0.18-0.351-0.352-0.058-0.069-0.092-0.135-0.122-0.195s-0.053-0.108-0.1-0.154l-0.049-0.049v-0.465l1.6-14.277z"></path>
</symbol>
<symbol id="icon-convention" viewBox="0 0 32 32">
<title>convention</title>
<path d="M27.36 12.214c0.91-0.891 1.44-2.109 1.44-3.414 0-2.647-2.153-4.8-4.8-4.8-0.875 0-1.735 0.24-2.489 0.695-0.252 0.152-0.333 0.48-0.181 0.732s0.48 0.333 0.732 0.181c0.588-0.355 1.258-0.542 1.938-0.542 2.058 0 3.733 1.675 3.733 3.733 0 1.268-0.635 2.436-1.701 3.127-0.895 0.587-2.029 0.756-3.065 0.461-0.28-0.081-0.578 0.083-0.659 0.366s0.083 0.578 0.367 0.659c0.431 0.123 0.877 0.186 1.325 0.186 0.839 0 1.649-0.229 2.369-0.642 2.738 0.992 4.564 3.577 4.564 6.509v2.667h-4.863c-0.378-3.562-2.619-6.679-5.888-8.16 1.040-1.059 1.684-2.509 1.684-4.107 0-3.235-2.632-5.867-5.867-5.867s-5.867 2.632-5.867 5.867c0 1.599 0.645 3.049 1.685 4.108-1.1 0.5-2.12 1.199-2.986 2.059-1.659 1.664-2.668 3.799-2.908 6.099h-4.858v-2.667c0-1.847 0.721-3.588 2.029-4.902 0.72-0.715 1.596-1.261 2.54-1.604 0.72 0.411 1.528 0.639 2.364 0.639 0.448 0 0.894-0.063 1.325-0.186 0.283-0.081 0.447-0.376 0.367-0.659s-0.379-0.447-0.659-0.366c-1.035 0.296-2.169 0.127-3.068-0.463-1.063-0.69-1.698-1.858-1.698-3.126 0-2.059 1.675-3.733 3.733-3.733 0.68 0 1.35 0.187 1.938 0.542 0.253 0.152 0.58 0.070 0.732-0.181s0.071-0.58-0.181-0.732c-0.754-0.455-1.615-0.695-2.489-0.695-2.647 0-4.8 2.153-4.8 4.8 0 1.304 0.529 2.521 1.437 3.411-0.846 0.393-1.627 0.936-2.295 1.599-1.51 1.517-2.342 3.525-2.342 5.656v3.2c0 0.295 0.239 0.533 0.533 0.533h5.333v4.267c0 0.295 0.239 0.533 0.533 0.533h19.2c0.295 0 0.533-0.239 0.533-0.533v-4.267h5.333c0.295 0 0.533-0.239 0.533-0.533v-3.2c0-3.153-1.833-5.959-4.64-7.253zM11.2 9.867c0-2.647 2.153-4.8 4.8-4.8s4.8 2.153 4.8 4.8c0 2.647-2.153 4.8-4.8 4.8s-4.8-2.153-4.8-4.8zM25.067 26.933h-18.133v-3.733c0-2.418 0.943-4.696 2.653-6.411 0.901-0.896 1.993-1.591 3.165-2.041 0.931 0.622 2.048 0.986 3.249 0.986 1.203 0 2.322-0.365 3.254-0.989 3.486 1.339 5.813 4.7 5.813 8.455v3.733z"></path>
</symbol>
<symbol id="icon-eco-friendly" viewBox="0 0 32 32">
<title>eco-friendly</title>
<path d="M16.913 26.851v-3.418c2.617-0.189 4.568-0.764 6.073-1.624 1.668-0.953 2.715-2.216 3.506-3.529 0.391-0.649 0.723-1.315 1.031-1.952 0.056-0.116 0.112-0.231 0.166-0.345l0-0c0.25-0.519 0.487-1.013 0.747-1.494 0.626-1.158 1.33-2.138 2.418-2.868 0.296-0.199 0.45-0.552 0.393-0.904s-0.313-0.64-0.657-0.736c-5.772-1.611-10.975 0.874-13.639 5.034-1.288-6.55-7.495-11.791-15.433-10.614-0.353 0.052-0.643 0.305-0.744 0.648s0.008 0.712 0.278 0.946c1.131 0.984 1.788 2.195 2.327 3.582 0.224 0.576 0.42 1.163 0.626 1.778l0 0.001c0.045 0.134 0.090 0.269 0.136 0.406 0.254 0.753 0.529 1.538 0.872 2.312 0.693 1.563 1.674 3.1 3.381 4.383 1.574 1.182 3.708 2.105 6.684 2.678-0.004 0.206-0.003 0.413 0.003 0.62v5.095c0 0.505 0.409 0.914 0.914 0.914s0.914-0.409 0.914-0.914zM16.91 21.6c-0.128-5.894 5.009-10.973 11.441-10.205-0.627 0.696-1.108 1.459-1.522 2.225-0.282 0.523-0.543 1.064-0.793 1.585l-0.001 0.001c-0.053 0.11-0.105 0.219-0.157 0.327-0.305 0.63-0.605 1.232-0.951 1.804-0.682 1.131-1.526 2.13-2.848 2.885-1.188 0.679-2.82 1.194-5.169 1.378zM3.585 6.066c7.515-0.084 12.715 6.505 11.646 13.236-2.672-0.537-4.47-1.356-5.735-2.306-1.389-1.043-2.201-2.293-2.808-3.662-0.307-0.692-0.56-1.41-0.811-2.156-0.043-0.128-0.087-0.258-0.131-0.389l-0-0c-0.206-0.616-0.42-1.253-0.661-1.873-0.377-0.972-0.838-1.945-1.501-2.85z"></path>
</symbol>
<symbol id="icon-electric" viewBox="0 0 32 32">
<title>electric</title>
<path d="M18.582 0.188c0.418 0.13 0.703 0.517 0.703 0.955v10.429h7c0.371 0 0.712 0.206 0.885 0.534s0.149 0.726-0.061 1.032l-12.571 18.286c-0.248 0.361-0.702 0.518-1.121 0.388s-0.703-0.517-0.703-0.955v-10.429h-7c-0.371 0-0.712-0.206-0.885-0.535s-0.149-0.726 0.061-1.032l12.571-18.286c0.248-0.361 0.702-0.518 1.121-0.388zM7.615 18.429h6.099c0.552 0 1 0.448 1 1v8.209l9.67-14.066h-6.099c-0.552 0-1-0.448-1-1v-8.209l-9.67 14.066z"></path>
</symbol>
<symbol id="icon-envelope" viewBox="0 0 32 32">
<title>envelope</title>
<path d="M30.53 4.8h-28.8c-0.974 0-1.67 0.696-1.67 1.53v19.2c0 0.278 0.139 0.696 0.278 0.974 0.278 0.417 0.835 0.696 1.252 0.696h28.8c0.557 0 0.974-0.278 1.252-0.696 0.139-0.278 0.278-0.557 0.278-0.974v-19.2c0.139-0.835-0.557-1.53-1.391-1.53zM1.174 25.252v-16.974l10.991 8.487-10.991 8.487zM1.73 26.087l11.27-8.626 2.087 1.669c0.557 0.417 1.391 0.417 1.948 0l2.087-1.669 11.269 8.626h-28.661zM30.948 25.252l-10.991-8.487 10.991-8.487v16.974zM31.087 6.875l-14.748 11.281c-0.139 0.139-0.417 0.139-0.696 0l-14.47-11.27v-0.557c0-0.278 0.278-0.557 0.557-0.557h28.8c0.278 0 0.557 0.278 0.557 0.557v0.545z"></path>
</symbol>
<symbol id="icon-event-planning-tool" viewBox="0 0 32 32">
<title>event-planning-tool</title>
<path d="M19.833 1.867h-2.1v-1.167c0-0.386-0.314-0.7-0.7-0.7s-0.7 0.314-0.7 0.7v1.167h-10.266v-1.167c0-0.386-0.314-0.7-0.7-0.7s-0.7 0.314-0.7 0.7v1.167h-2.1c-1.416 0-2.567 1.151-2.567 2.567v15.4c0 1.416 1.151 2.567 2.567 2.567h10.233v-1.4h-10.233c-0.643 0-1.167-0.524-1.167-1.167v-10.966h19.6v3.933h1.4v-8.366c0-1.416-1.151-2.567-2.567-2.567zM1.4 7.467v-3.033c0-0.643 0.524-1.167 1.167-1.167h2.1v1.633c0 0.386 0.314 0.7 0.7 0.7s0.7-0.314 0.7-0.7v-1.633h10.266v1.633c0 0.386 0.314 0.7 0.7 0.7s0.7-0.314 0.7-0.7v-1.633h2.1c0.643 0 1.167 0.524 1.167 1.167v3.033h-19.6z"></path>
<path d="M30.869 29.028c0.041-0.041 0.041-0.17 0.001-0.212l-3.618-3.347 2.724-1.525c0.119-0.073 0.109-0.13 0.103-0.165-0.007-0.043-0.027-0.116-0.076-0.126l-7.862-1.629c-0.029-0.005-0.084 0.004-0.141 0.059-0.028 0.027-0.041 0.048-0.046 0.059l1.697 7.848c0.007 0.012 0.072 0.077 0.155 0.093 0.004-0.004 0.093-0.035 0.146-0.12l1.483-2.758 3.521 3.521c0.042 0.042 0.171 0.043 0.213 0l1.699-1.698z"></path>
<path d="M22.091 18.269c0.425 0 0.708-0.354 0.708-0.708v-2.123c0-0.425-0.354-0.708-0.708-0.708-0.425 0-0.708 0.354-0.708 0.708v2.123c0 0.354 0.283 0.708 0.708 0.708z"></path>
<path d="M19.472 18.34l-1.557-1.486c-0.283-0.354-0.779-0.354-1.062 0-0.283 0.283-0.283 0.708 0 0.991l1.486 1.486c0.283 0.283 0.779 0.283 1.062 0 0.354-0.212 0.354-0.708 0.071-0.991z"></path>
<path d="M14.73 22.020c0 0.425 0.354 0.708 0.708 0.708h2.123c0.425 0 0.708-0.354 0.708-0.708s-0.354-0.708-0.708-0.708h-2.123c-0.425 0-0.708 0.354-0.708 0.708z"></path>
<path d="M18.41 24.71l-1.486 1.486c-0.283 0.283-0.283 0.779 0 1.062s0.779 0.283 1.062 0l1.486-1.486c0.283-0.283 0.283-0.779 0-1.062-0.354-0.283-0.779-0.283-1.062 0z"></path>
<path d="M25.842 19.401l1.486-1.557c0.283-0.283 0.283-0.779 0-1.062s-0.779-0.283-1.062 0l-1.486 1.486c-0.283 0.283-0.283 0.779 0 1.062 0.283 0.354 0.779 0.354 1.062 0.071z"></path>
</symbol>
<symbol id="icon-filled-map-pin" viewBox="0 0 32 32">
<title>filled-map-pin</title>
<path d="M24 4.051c-1.181-1.076-2.564-1.905-4.069-2.439s-3.102-0.763-4.697-0.672c-1.595 0.091-3.155 0.499-4.59 1.201s-2.715 1.683-3.766 2.886-1.85 2.604-2.352 4.12c-0.502 1.516-0.696 3.118-0.572 4.71s0.566 3.144 1.298 4.563c0.732 1.42 1.74 2.679 2.966 3.704 2.801 2.329 5.141 5.161 6.9 8.351 0.086 0.159 0.213 0.292 0.369 0.384s0.333 0.141 0.513 0.14c0.18-0 0.358-0.049 0.512-0.142s0.282-0.225 0.368-0.384l0.082-0.154c1.771-3.151 4.107-5.95 6.89-8.257 1.29-1.115 2.327-2.492 3.043-4.039s1.093-3.229 1.107-4.934c0.014-1.705-0.336-3.393-1.026-4.951s-1.704-2.952-2.976-4.088zM16 18c-0.989 0-1.956-0.293-2.778-0.843s-1.463-1.33-1.841-2.244-0.477-1.919-0.284-2.889c0.193-0.97 0.669-1.861 1.368-2.56s1.59-1.176 2.56-1.368c0.97-0.193 1.975-0.094 2.889 0.284s1.695 1.019 2.244 1.842c0.549 0.822 0.843 1.789 0.843 2.778-0.002 1.326-0.529 2.596-1.466 3.534s-2.208 1.464-3.534 1.466z"></path>
</symbol>
<symbol id="icon-floorplan" viewBox="0 0 32 32">
<title>floorplan</title>
<path d="M29.817 1.32h-27.635c-0.475 0-0.862 0.387-0.862 0.862v27.637c0 0.475 0.387 0.861 0.862 0.861h15.66c0.475 0 0.861-0.386 0.861-0.861s-0.386-0.863-0.861-0.863h-14.799v-13.016h7.489v5.586c0 0.475 0.387 0.863 0.862 0.863s0.862-0.388 0.862-0.863v-12.896c0-0.475-0.387-0.862-0.862-0.862s-0.862 0.387-0.862 0.862v5.587h-7.489v-11.174h14.859v7.43c0 0.475 0.388 0.862 0.863 0.862h6.448c0.475 0 0.861-0.387 0.861-0.862s-0.386-0.861-0.861-0.861h-5.588v-6.569h9.331v17.623h-10.192c-0.475 0-0.863 0.388-0.863 0.863s0.388 0.861 0.863 0.861h10.192v6.567h-2.824c-0.475 0-0.861 0.388-0.861 0.863s0.386 0.861 0.861 0.861h3.684c0.475 0 0.863-0.386 0.863-0.861v-27.637c0-0.475-0.388-0.862-0.863-0.862z"></path>
</symbol>
<symbol id="icon-food-beverage" viewBox="0 0 32 32">
<title>food-beverage</title>
<path d="M23.5 7.563h-6.569v-4.822l5.769-0.876c0.512-0.078 0.864-0.556 0.786-1.068s-0.556-0.864-1.068-0.786l-6.566 0.997c-0.458 0.070-0.797 0.463-0.797 0.927v5.628h-6.556c-1.551 0-2.813 1.262-2.813 2.813v1.875c0 0.518 0.42 0.937 0.937 0.937h1.020l1.791 17.968c0.048 0.479 0.451 0.845 0.933 0.845h11.256c0.482 0 0.885-0.365 0.933-0.845l1.785-17.967h1.032c0.518 0 0.938-0.42 0.938-0.937v-1.875c0-1.551-1.262-2.812-2.813-2.812zM21.434 23.5h-10.877l-0.374-3.753h11.624l-0.373 3.753zM11.217 30.125l-0.473-4.75h10.504l-0.472 4.75h-9.559zM21.993 17.872h-11.997l-0.467-4.684h12.929l-0.465 4.684zM24.437 11.313c-0.786 0-15.731 0-16.875 0v-0.938c0-0.517 0.421-0.937 0.937-0.937h15c0.517 0 0.937 0.421 0.937 0.937v0.938z"></path>
</symbol>
<symbol id="icon-food-cutlery" viewBox="0 0 32 32">
<title>food-cutlery</title>
<path d="M28.437 2.691c-0.224-0.224-0.588-0.224-0.813 0l-5.958 5.958c-0.224 0.224-0.224 0.588 0 0.813 0.112 0.112 0.259 0.168 0.406 0.168s0.294-0.056 0.406-0.168l5.958-5.958c0.224-0.225 0.224-0.588 0-0.813z"></path>
<path d="M30.056 4.286c-0.225-0.224-0.588-0.224-0.813 0l-5.958 5.958c-0.224 0.225-0.224 0.588 0 0.813 0.112 0.112 0.259 0.168 0.406 0.168s0.294-0.056 0.406-0.168l5.958-5.958c0.225-0.224 0.225-0.588 0-0.813z"></path>
<path d="M24.437 14.347l7.396-7.396c0.224-0.225 0.224-0.588 0-0.813s-0.588-0.224-0.813 0l-7.396 7.396c-0.911 0.911-2.304 1.15-3.467 0.595-0.231-0.11-0.507-0.055-0.677 0.137l-2.513 2.831c-0.001 0.001-0.002 0.002-0.003 0.003s-0.002 0.002-0.003 0.003l-10.862 12.237c-0.003 0.003-0.005 0.006-0.008 0.009-0.036 0.042-0.070 0.079-0.104 0.113-0.717 0.717-1.884 0.717-2.601 0-0.347-0.347-0.539-0.809-0.539-1.301s0.191-0.953 0.539-1.301c0.033-0.034 0.070-0.067 0.113-0.103 0.003-0.003 0.006-0.005 0.009-0.008l6.791-6.027c0.237-0.211 0.259-0.574 0.048-0.811s-0.574-0.259-0.811-0.048l-6.786 6.023c-0.065 0.055-0.123 0.109-0.177 0.163-0.564 0.564-0.875 1.315-0.875 2.113s0.311 1.549 0.875 2.113c0.583 0.583 1.348 0.874 2.113 0.874s1.53-0.291 2.113-0.873c0.055-0.055 0.109-0.113 0.163-0.177l8.277-9.325 8.277 9.325c0.055 0.064 0.108 0.122 0.163 0.177 0.583 0.583 1.348 0.874 2.113 0.874s1.531-0.291 2.113-0.874c1.165-1.165 1.165-3.061 0-4.226-0.055-0.055-0.113-0.109-0.177-0.163l-9.524-8.454 1.863-2.099c1.51 0.535 3.219 0.162 4.369-0.988zM26.971 26.751c0.003 0.003 0.006 0.006 0.009 0.008 0.042 0.036 0.079 0.070 0.113 0.104 0.717 0.717 0.717 1.884 0 2.601s-1.884 0.717-2.601-0c-0.034-0.034-0.068-0.071-0.104-0.113-0.003-0.003-0.005-0.006-0.008-0.009l-8.372-9.433 1.434-1.615 9.529 8.458z"></path>
<path d="M26.711 1.017c-0.225-0.224-0.588-0.224-0.813 0l-7.396 7.396c-1.15 1.15-1.523 2.858-0.988 4.369l-2.276 2.020-2.187-1.941c1.131-2.226 0.718-4.928-1.076-6.723-1.782-1.782-3.847-3.037-5.813-3.532-2.053-0.517-3.813-0.172-4.956 0.972s-1.488 2.903-0.972 4.956c0.495 1.966 1.749 4.031 3.532 5.813 1.795 1.795 4.497 2.208 6.723 1.076 0 0 2.139 2.41 2.166 2.441 0.114 0.128 0.271 0.193 0.43 0.193 0.136 0 0.272-0.048 0.381-0.145l5.117-4.541c0.192-0.17 0.247-0.446 0.137-0.677-0.555-1.163-0.316-2.556 0.595-3.467l7.396-7.396c0.224-0.224 0.224-0.588 0-0.813zM13.133 16.671l-2.092-2.357c-0.185-0.209-0.494-0.254-0.731-0.108-1.842 1.136-4.199 0.86-5.731-0.673-1.638-1.638-2.785-3.513-3.23-5.281-0.414-1.645-0.176-3.017 0.67-3.863s2.218-1.084 3.863-0.67c1.768 0.445 3.643 1.592 5.281 3.23 1.532 1.532 1.809 3.889 0.673 5.731-0.147 0.238-0.101 0.546 0.108 0.731l2.431 2.157-1.24 1.101z"></path>
</symbol>
<symbol id="icon-globe-website" viewBox="0 0 32 32">
<title>globe-website</title>
<path d="M16.001 1.4c-8.051 0-14.6 6.549-14.6 14.6s6.549 14.599 14.6 14.599c8.050 0 14.6-6.548 14.6-14.599s-6.549-14.6-14.6-14.6zM16.001 2.6c0.636 0 1.337 0.32 1.876 0.858 0.625 0.625 1.172 1.507 1.773 2.86 0.559 1.258 0.956 2.626 1.215 4.182l0.038 0.232h-9.805l0.039-0.232c0.259-1.559 0.657-2.927 1.214-4.182 0.507-1.266 1.038-2.124 1.775-2.86 0.538-0.538 1.239-0.858 1.875-0.858zM21.112 11.934l0.021 0.178c0.129 1.161 0.268 2.514 0.268 3.889s-0.139 2.728-0.268 3.888l-0.021 0.178h-10.224l-0.019-0.178c-0.13-1.163-0.268-2.518-0.268-3.888s0.138-2.725 0.268-3.889l0.019-0.178h10.224zM9.772 10.733h-6.084l0.131-0.284c1.641-3.556 4.78-6.238 8.398-7.176l0.581-0.151-0.375 0.469c-0.562 0.702-0.96 1.546-1.306 2.354zM3.278 19.93c-0.443-1.327-0.677-2.686-0.677-3.93s0.234-2.603 0.677-3.93l0.046-0.137h6.234l-0.025 0.222c-0.132 1.189-0.132 2.539-0.132 3.844 0 1.344 0.137 2.689 0.266 3.844l0.025 0.223h-6.367l-0.046-0.137zM12.21 28.858c-3.641-1.078-6.777-3.81-8.391-7.309l-0.131-0.284h6.074l0.034 0.159c0.351 1.634 0.753 3.342 1.324 4.768 0.346 0.805 0.744 1.65 1.304 2.349l0.398 0.497-0.611-0.181zM16.001 29.4c-0.503 0-1.119-0.103-1.875-0.858-0.626-0.626-1.174-1.509-1.775-2.861-0.558-1.255-0.955-2.624-1.214-4.182l-0.039-0.233h9.805l-0.038 0.233c-0.259 1.556-0.656 2.923-1.215 4.182-0.602 1.353-1.148 2.236-1.773 2.861-0.538 0.537-1.239 0.858-1.876 0.858zM28.181 21.684c-1.612 3.497-4.749 6.229-8.389 7.307l-0.443 0.131 0.207-0.413c0.158-0.315 0.336-0.63 0.518-0.954 0.28-0.496 0.569-1.008 0.809-1.565 0.667-1.669 1.099-3.181 1.32-4.62l0.026-0.171h6.083l-0.131 0.284zM28.857 12.070c0.366 1.095 0.544 2.381 0.544 3.93s-0.178 2.835-0.544 3.93l-0.046 0.137h-6.369l0.025-0.223c0.129-1.15 0.266-2.49 0.266-3.844s-0.137-2.694-0.266-3.844l-0.025-0.222h6.369l0.046 0.137zM28.313 10.733h-6.083l-0.026-0.169c-0.221-1.44-0.654-2.952-1.322-4.623-0.345-0.803-0.743-1.648-1.303-2.349l-0.375-0.469 0.582 0.151c3.617 0.937 6.757 3.62 8.396 7.176l0.131 0.284z"></path>
</symbol>
<symbol id="icon-im-not-sure" viewBox="0 0 32 32">
<title>im-not-sure</title>
<path d="M3.915 7.867c-1.579 2.43-2.415 5.23-2.415 8.096 0 3.773 1.503 7.423 4.232 10.275 2.847 2.724 6.496 4.227 10.269 4.227 2.865 0 5.666-0.836 8.1-2.417 2.358-1.534 4.195-3.79 5.315-6.525 1.053-2.577 1.346-5.462 0.846-8.344-0.638-2.928-2.053-5.545-3.984-7.364-1.997-1.997-4.547-3.376-7.378-3.992-1.030-0.214-2.063-0.321-3.086-0.321-1.855 0-3.674 0.351-5.373 1.046-2.585 1.058-4.904 2.947-6.527 5.319zM16.002 3.083c2.635 0 5.119 0.771 7.187 2.231 1.995 1.29 3.667 3.357 4.702 5.816 0.99 2.35 1.246 4.919 0.743 7.432-0.499 2.493-1.731 4.825-3.467 6.564-1.789 1.789-3.997 2.956-6.565 3.469-0.836 0.167-1.68 0.25-2.519 0.25-1.68 0-3.346-0.333-4.912-0.993-2.359-0.992-4.316-2.574-5.817-4.702-1.461-2.258-2.231-4.741-2.231-7.187 0-3.387 1.319-6.64 3.713-9.16 2.526-2.4 5.779-3.719 9.167-3.719z"></path>
<path d="M16.003 22.319c-0.489 0-0.978 0.367-0.978 0.978s0.367 0.978 0.978 0.978 0.978-0.367 0.978-0.978-0.489-0.978-0.978-0.978z"></path>
<path d="M19.302 8.995c-1.711-1.711-4.767-1.711-6.479 0-0.856 0.856-1.345 1.956-1.345 3.301 0 0.245 0.122 0.489 0.245 0.611 0.367 0.367 0.978 0.367 1.345 0 0.122-0.122 0.245-0.367 0.245-0.611 0-0.733 0.245-1.467 0.856-1.956 1.1-1.1 2.812-1.1 3.912 0 0.489 0.489 0.856 1.222 0.856 1.956 0 0.611-0.122 1.222-0.489 1.711-0.244 0.489-0.733 0.856-1.1 1.222-0.611 0.489-1.222 1.222-1.589 1.956s-0.611 1.589-0.611 2.445c0 0.245 0.122 0.489 0.244 0.611s0.367 0.245 0.611 0.245c0.245 0 0.489-0.122 0.611-0.245s0.245-0.367 0.245-0.611c0-0.611 0.122-1.222 0.489-1.711 0.245-0.489 0.733-0.856 1.1-1.345 0.611-0.489 1.222-1.222 1.467-1.956 0.367-0.733 0.611-1.589 0.611-2.445-0-1.1-0.367-2.2-1.223-3.178z"></path>
</symbol>
<symbol id="icon-map-pin" viewBox="0 0 32 32">
<title>map-pin</title>
<path d="M16.169 1.333c-5.975 0-10.836 4.861-10.836 10.836 0 1.967 0.882 4.083 0.919 4.172 0.285 0.676 0.847 1.727 1.253 2.342l7.43 11.257c0.304 0.461 0.754 0.726 1.235 0.726s0.931-0.265 1.235-0.725l7.43-11.258c0.406-0.616 0.967-1.666 1.252-2.342 0.037-0.089 0.919-2.204 0.919-4.172 0-5.975-4.861-10.836-10.836-10.836zM24.911 15.846c-0.254 0.606-0.778 1.583-1.142 2.135l-7.43 11.258c-0.147 0.223-0.193 0.223-0.34 0l-7.43-11.258c-0.364-0.552-0.887-1.53-1.142-2.136-0.011-0.026-0.82-1.973-0.82-3.677 0-5.272 4.289-9.561 9.561-9.561s9.561 4.289 9.561 9.561c0 1.706-0.811 3.658-0.819 3.677z"></path>
<path d="M16.169 6.434c-3.163 0-5.737 2.574-5.737 5.737s2.573 5.737 5.737 5.737c3.163 0 5.737-2.574 5.737-5.737s-2.573-5.737-5.737-5.737zM16.169 16.632c-2.46 0-4.462-2.001-4.462-4.462s2.002-4.462 4.462-4.462 4.462 2.001 4.462 4.462c0 2.46-2.002 4.462-4.462 4.462z"></path>
</symbol>
<symbol id="icon-medal" viewBox="0 0 32 32">
<title>medal</title>
<path d="M29.504 26.628l-4.677-8.216c0.474-0.221 0.758-0.727 0.727-1.296l-0.348-2.907 1.991-2.086c0.442-0.442 0.474-1.201 0.032-1.738l-1.991-2.149 0.411-2.939c0.063-0.632-0.379-1.264-1.011-1.39l-2.876-0.569-1.39-2.559c-0.284-0.6-0.98-0.853-1.612-0.6h-0.032l-2.654 1.232-2.591-1.264c-0.284-0.158-0.632-0.19-0.948-0.095s-0.569 0.316-0.727 0.6l-1.422 2.559-2.875 0.506c-0.664 0.126-1.106 0.727-1.043 1.422l0.348 2.907-1.991 2.086c-0.442 0.442-0.474 1.201-0.032 1.738l1.991 2.149-0.411 2.939c-0.063 0.569 0.284 1.106 0.822 1.327l-4.708 8.342c-0.126 0.19-0.095 0.442 0 0.632 0.126 0.19 0.316 0.316 0.537 0.316h5.056l2.307 4.013c0.126 0.19 0.316 0.316 0.537 0.316s0.442-0.126 0.537-0.316l4.519-7.71 4.519 7.805c0.126 0.19 0.316 0.316 0.537 0.316s0.442-0.126 0.537-0.316l2.307-4.108h5.056c0.221 0 0.442-0.126 0.537-0.316 0.158-0.19 0.158-0.442 0.032-0.632zM10.956 30.009l-1.959-3.381c-0.126-0.19-0.316-0.316-0.537-0.316h-4.361l4.361-7.71 1.801 0.316 1.39 2.559c0.284 0.6 0.98 0.853 1.612 0.6h0.032l1.296-0.6 0.632 1.106-4.266 7.426zM12.788 20.94c-0.032 0-0.032 0-0.032 0l-1.39-2.623c-0.19-0.316-0.506-0.569-0.885-0.6l-2.907-0.537 0.411-2.907c0.063-0.379-0.063-0.79-0.316-1.043l-1.959-2.149 1.991-2.086c0.284-0.284 0.411-0.664 0.348-1.043l-0.348-2.875c0 0 0-0.032 0.032-0.063l2.875-0.506c0.348-0.063 0.695-0.284 0.885-0.632l1.422-2.559 2.591 1.264c0.348 0.19 0.79 0.19 1.138 0l2.623-1.201c0.032 0 0.032 0 0.032 0l1.39 2.623c0.19 0.316 0.506 0.569 0.853 0.6l2.876 0.569-0.411 2.907c-0.063 0.379 0.063 0.79 0.316 1.043l1.991 2.149-2.022 2.085c-0.284 0.284-0.411 0.664-0.348 1.043l0.348 2.907-2.844 0.474c-0.347 0.063-0.695 0.284-0.885 0.632l-1.422 2.559-2.591-1.264c-0.348-0.19-0.79-0.19-1.138 0l-2.623 1.232zM23.532 26.312c-0.221 0-0.442 0.126-0.537 0.316l-1.959 3.476-4.455-7.71c-0.032-0.095-0.063-0.158-0.126-0.221l-0.695-1.232 0.221-0.095 2.591 1.264c0.19 0.095 0.379 0.126 0.569 0.126 0.442 0 0.885-0.221 1.106-0.632l1.422-2.559 1.896-0.348 4.329 7.615h-4.361z"></path>
<path d="M22.299 11.145c0-3.476-2.844-6.32-6.32-6.32s-6.32 2.844-6.32 6.32c0 3.476 2.844 6.32 6.32 6.32s6.32-2.844 6.32-6.32zM15.979 16.201c-2.781 0-5.056-2.275-5.056-5.056s2.275-5.056 5.056-5.056 5.056 2.275 5.056 5.056c0 2.781-2.275 5.056-5.056 5.056z"></path>
</symbol>
<symbol id="icon-meeting-conference" viewBox="0 0 32 32">
<title>meeting-conference</title>
<path d="M26.559 8.663h-6.105v-1.665c0-0.888-0.777-1.665-1.665-1.665h-5.549c-0.888 0-1.665 0.777-1.665 1.665v1.665h-6.104c-1.554 0-2.775 1.221-2.775 2.775v1.997c-0 0-0 0-0 0.001-0.039 0.116-0.027 0.228 0 0.335v10.987c0 1.554 1.221 2.775 2.775 2.775h21.088c1.554 0 2.775-1.221 2.775-2.775v-13.319c0-1.554-1.221-2.775-2.775-2.775zM12.685 6.998c0-0.333 0.222-0.555 0.555-0.555h5.549c0.333 0 0.555 0.222 0.555 0.555v1.665h-6.659v-1.665zM5.471 9.773h6.657c0.001 0 0.001 0 0.001 0s0.001-0 0.001-0h7.766c0.001 0 0.001 0 0.001 0s0.001-0 0.001-0h6.658c0.888 0 1.665 0.777 1.665 1.665v1.782l-12.209 4.322-12.208-4.322v-1.783c0-0.888 0.777-1.665 1.665-1.665zM26.559 26.421h-21.088c-0.888 0-1.665-0.777-1.665-1.665v-10.274l11.986 4.169c0.111 0 0.111 0 0.222 0s0.111 0 0.111-0.111l12.098-4.208v10.423c0 0.888-0.777 1.665-1.665 1.665z"></path>
</symbol>
<symbol id="icon-other" viewBox="0 0 32 32">
<title>other</title>
<path d="M16 13c-1.654 0-3 1.346-3 3s1.346 3 3 3 3-1.346 3-3-1.346-3-3-3z"></path>
<path d="M6 13c-1.654 0-3 1.346-3 3s1.346 3 3 3 3-1.346 3-3-1.346-3-3-3z"></path>
<path d="M26 13c-1.654 0-3 1.346-3 3s1.346 3 3 3 3-1.346 3-3-1.346-3-3-3z"></path>
</symbol>
<symbol id="icon-parking" viewBox="0 0 32 32">
<title>parking</title>
<path d="M31.778 11.761c-0.076-0.221-0.346-0.394-0.571-0.394-0.975 0-1.949 0-2.924 0-0.225 0-0.495 0.172-0.571 0.394-0.074 0.217-0.13 0.41-0.167 0.592l-1.953-5.404c-0.322-0.891-1.175-1.49-2.123-1.49h-14.939c-0.948 0-1.8 0.599-2.123 1.49l-1.953 5.404c-0.037-0.182-0.093-0.376-0.167-0.593-0.076-0.221-0.346-0.394-0.571-0.394-0.975 0-1.949 0-2.924 0-0.225 0-0.495 0.172-0.571 0.394-0.296 0.862-0.296 1.356 0 2.218 0.076 0.221 0.346 0.394 0.571 0.394 0.975 0 1.949 0 2.924 0 0.003 0 0.006-0.001 0.008-0.001l-0.044 0.122c-0.596 0.198-1.027 0.759-1.027 1.422v9.905c0 0.398 0.323 0.721 0.721 0.721h3.627c0.398 0 0.721-0.323 0.721-0.721v-3.508h16.555v3.508c0 0.398 0.323 0.721 0.721 0.721h3.627c0.398 0 0.721-0.323 0.721-0.721v-9.905c0-0.663-0.43-1.224-1.026-1.422l-0.044-0.122c0.003 0 0.005 0.001 0.008 0.001 0.975 0 1.949 0 2.924 0 0.225 0 0.495-0.172 0.571-0.394 0.296-0.862 0.296-1.356-0-2.218zM8.807 8.111h14.385l2.279 6.305h-18.943l2.279-6.305zM9.208 18.858h-3.034c-0.651 0-1.179-0.528-1.179-1.179s0.528-1.179 1.179-1.179h3.034c0.651 0 1.179 0.528 1.179 1.179s-0.528 1.179-1.179 1.179zM25.826 18.858h-3.034c-0.651 0-1.179-0.528-1.179-1.179s0.528-1.179 1.179-1.179h3.034c0.651 0 1.179 0.528 1.179 1.179s-0.528 1.179-1.179 1.179z"></path>
</symbol>
<symbol id="icon-star" viewBox="0 0 32 32">
<title>star</title>
<path d="M8.046 29.759c-0.316 0-0.629-0.098-0.896-0.292-0.498-0.361-0.731-0.981-0.595-1.58l1.853-8.161-6.284-5.51c-0.462-0.403-0.638-1.042-0.449-1.626 0.19-0.583 0.706-0.996 1.316-1.052l8.314-0.755 3.287-7.692c0.242-0.565 0.794-0.93 1.408-0.93s1.165 0.365 1.408 0.929l3.287 7.693 8.312 0.755c0.612 0.055 1.128 0.469 1.318 1.052s0.014 1.223-0.448 1.626l-6.284 5.509 1.853 8.161c0.136 0.6-0.097 1.221-0.595 1.58-0.497 0.36-1.159 0.388-1.683 0.073l-7.169-4.284-7.169 4.287c-0.243 0.144-0.513 0.217-0.785 0.217zM16 23.41c0.272 0 0.542 0.073 0.785 0.217l6.766 4.047-1.749-7.703c-0.125-0.548 0.061-1.121 0.485-1.492l5.933-5.203-7.849-0.713c-0.565-0.052-1.051-0.407-1.272-0.928l-3.099-7.259-3.102 7.26c-0.218 0.517-0.704 0.872-1.268 0.924l-7.851 0.713 5.933 5.203c0.425 0.372 0.611 0.943 0.485 1.493l-1.747 7.703 6.766-4.045c0.242-0.144 0.512-0.217 0.785-0.217zM11.242 10.93c0 0 0 0.001-0.001 0.002l0.001-0.002zM20.756 10.927l0.001 0.002c0-0.001 0-0.001-0.001-0.002z"></path>
</symbol>
<symbol id="icon-telephone" viewBox="0 0 32 32">
<title>telephone</title>
<path d="M29.393 23.178c-0.111-0.418-0.301-0.803-0.585-1.164l-3.799-3.019c-0.586-0.437-1.313-0.667-2.043-0.637-0.733 0.029-1.439 0.31-1.993 0.796l-1.527 1.447c-3.2-0.781-7.8-4.885-8.098-7.986l1.528-1.611c0.474-0.553 0.747-1.26 0.77-1.988s-0.208-1.451-0.65-2.035l-2.902-3.673c-0.042-0.056-0.093-0.104-0.141-0.135-0.341-0.264-0.724-0.454-1.14-0.564-0.416-0.112-0.843-0.137-1.273-0.077-3.202 0.526-5.038 2.323-5.038 4.93 0 5.889 2.293 11.425 6.457 15.589 4.163 4.163 9.699 6.456 15.587 6.456 2.609 0 4.405-1.841 4.925-5.053 0.060-0.427 0.035-0.855-0.076-1.273zM11.729 9.971l-1.726 1.824c-0.135 0.143-0.21 0.33-0.21 0.527 0 3.983 5.732 9.21 9.766 9.887 0.117 0.022 0.241 0.012 0.352-0.023 0.113-0.034 0.219-0.095 0.305-0.177l1.819-1.702c0.284-0.242 0.645-0.383 1.018-0.395 0.019-0.001 0.040-0.001 0.061-0.001 0.349 0 0.695 0.113 0.977 0.322l3.596 2.828c0.24 0.341 0.336 0.754 0.273 1.164-0.288 1.702-1.112 3.732-3.415 3.732-5.474 0-10.621-2.131-14.492-6.004-3.871-3.871-6.003-9.017-6.003-14.492 0-2.322 2.026-3.125 3.729-3.389 0.077-0.005 0.154-0.004 0.243 0.001 0.335 0.001 0.656 0.102 0.93 0.29l2.82 3.564c0.223 0.297 0.341 0.665 0.332 1.036s-0.144 0.732-0.374 1.010z"></path>
</symbol>
<symbol id="icon-trade-show" viewBox="0 0 32 32">
<title>trade-show</title>
<path d="M29.534 25.534h0.466c0.845 0 1.534-0.689 1.534-1.534v-2c0-0.845-0.689-1.534-1.534-1.534h-0.466v-11.103l0.264-0.127c0.159-0.075 0.311-0.161 0.456-0.264 1.004-0.714 1.418-2.047 1.030-3.318-0.316-1.035-0.872-2.514-1.284-3.572-0.38-0.982-1.307-1.615-2.362-1.615h-23.278c-1.053 0-1.98 0.633-2.36 1.613-0.331 0.85-0.936 2.441-1.275 3.555-0.432 1.419 0.216 3 1.475 3.6l0.266 0.126v11.106h-0.467c-0.846 0-1.533 0.689-1.533 1.534v2c0 0.845 0.687 1.534 1.533 1.534h0.467v3.466c0 1.397 1.136 2.534 2.533 2.534h22c1.397 0 2.534-1.137 2.534-2.534v-3.466zM1.745 5.944v-0.001c0.305-0.999 0.847-2.443 1.249-3.478 0.22-0.566 0.756-0.932 1.366-0.932h23.278c0.611 0 1.146 0.367 1.366 0.934 0.263 0.673 0.913 2.363 1.262 3.499 0.247 0.819-0.012 1.697-0.63 2.137-0.672 0.477-1.604 0.477-2.273 0.001-0.776-0.552-1.948-0.552-2.724 0-0.672 0.477-1.604 0.477-2.276 0-0.802-0.57-1.922-0.57-2.724 0-0.672 0.477-1.604 0.477-2.276 0-0.801-0.571-1.923-0.572-2.723-0.001-0.671 0.477-1.605 0.476-2.276 0.001-0.803-0.57-1.923-0.571-2.724-0.001-0.673 0.477-1.607 0.476-2.276 0.001-0.803-0.57-1.923-0.571-2.724-0.001-0.335 0.238-0.738 0.361-1.141 0.361-0.302 0-0.604-0.068-0.878-0.207-0.779-0.394-1.154-1.389-0.874-2.313zM19.871 19.766l0.406 0.701h-8.553l0.406-0.701c0.797-1.376 2.281-2.232 3.87-2.232s3.073 0.855 3.871 2.232zM14.533 14c0-0.809 0.658-1.467 1.467-1.467s1.466 0.658 1.466 1.467-0.658 1.467-1.466 1.467-1.467-0.658-1.467-1.467zM17.736 16.759l-0.806-0.268 0.659-0.536c0.6-0.489 0.945-1.201 0.945-1.954 0-1.397-1.137-2.533-2.534-2.533s-2.533 1.136-2.533 2.533c0 0.753 0.344 1.465 0.945 1.954l0.658 0.536-0.805 0.268c-1.608 0.536-2.904 1.806-3.468 3.397l-0.111 0.31h-7.153v-10.923l0.401-0.057c0.49-0.070 0.947-0.247 1.323-0.512 0.44-0.313 1.052-0.311 1.489 0.002 1.032 0.732 2.476 0.732 3.51-0.002 0.439-0.312 1.051-0.311 1.489 0.001 1.033 0.734 2.477 0.732 3.511-0.001 0.437-0.311 1.049-0.311 1.488 0 1.034 0.736 2.478 0.735 3.509 0.001 0.44-0.313 1.053-0.312 1.491-0.001 1.034 0.736 2.478 0.735 3.509 0.001 0.44-0.313 1.053-0.312 1.491-0.001 0.395 0.281 0.84 0.458 1.322 0.526l0.4 0.057v10.909h-7.152l-0.111-0.31c-0.564-1.591-1.859-2.861-3.467-3.397zM28.466 29c0 0.809-0.658 1.466-1.466 1.466h-22c-0.809 0-1.467-0.658-1.467-1.466v-3.466h24.933v3.466zM1.533 24.466v-2.932l28.933-0.004v2.936h-28.933z"></path>
</symbol>
<symbol id="icon-two-people" viewBox="0 0 32 32">
<title>two-people</title>
<path d="M16.446 15.453c1.898-1.262 3.059-3.384 3.059-5.644 0-3.754-3.055-6.809-6.809-6.809s-6.809 3.055-6.809 6.809c0 2.26 1.161 4.384 3.059 5.645-4.937 1.486-8.345 5.774-8.345 10.574v1.623c0 0.475 0.386 0.861 0.861 0.861s0.861-0.386 0.861-0.861v-1.623c0-5.189 4.653-9.411 10.373-9.411s10.373 4.222 10.373 9.411v1.623c0 0.475 0.386 0.861 0.861 0.861s0.861-0.386 0.861-0.861v-1.623c0-4.802-3.408-9.090-8.344-10.575zM17.783 9.809c0 2.805-2.282 5.087-5.088 5.087s-5.087-2.282-5.087-5.087 2.282-5.087 5.087-5.087c2.805 0 5.088 2.282 5.088 5.087z"></path>
<path d="M25.289 15.474c1.352-1.040 2.147-2.635 2.147-4.344 0-3.025-2.461-5.487-5.488-5.487-0.475 0-0.861 0.386-0.861 0.861s0.386 0.861 0.861 0.861c2.077 0 3.766 1.689 3.766 3.765s-1.689 3.766-3.766 3.766c-0.475 0-0.861 0.386-0.861 0.861s0.386 0.86 0.861 0.86c4.263 0 7.73 3.198 7.73 7.13v1.263c0 0.473 0.386 0.859 0.861 0.859s0.861-0.386 0.861-0.859v-1.263c-0-3.696-2.439-6.974-6.111-8.273z"></path>
</symbol>
<symbol id="icon-user" viewBox="0 0 32 32">
<title>user</title>
<path d="M27.947 29.6h-1.413v-6.36c0-0.937-0.372-1.836-1.035-2.498s-1.561-1.035-2.498-1.035h-12.72c-0.937 0-1.836 0.372-2.498 1.035s-1.035 1.561-1.035 2.498v6.36h-1.413v-6.36c0-1.312 0.521-2.57 1.449-3.498s2.186-1.449 3.498-1.449h12.72c1.312 0 2.57 0.521 3.498 1.449s1.449 2.186 1.449 3.498v6.36z"></path>
<path d="M16.641 16.88c-1.537 0-3.040-0.456-4.319-1.31s-2.275-2.068-2.863-3.489c-0.588-1.421-0.742-2.983-0.442-4.491s1.040-2.893 2.127-3.98 2.472-1.827 3.98-2.127c1.508-0.3 3.071-0.146 4.491 0.442s2.635 1.585 3.489 2.863 1.31 2.781 1.31 4.319c0 2.062-0.819 4.039-2.277 5.497s-3.435 2.277-5.497 2.277zM16.641 2.747c-1.258 0-2.488 0.373-3.533 1.072s-1.861 1.692-2.342 2.854c-0.481 1.162-0.607 2.441-0.362 3.675s0.851 2.367 1.741 3.256c0.889 0.889 2.023 1.495 3.256 1.741s2.513 0.119 3.675-0.362 2.155-1.297 2.854-2.342c0.699-1.046 1.072-2.276 1.072-3.533 0-1.687-0.67-3.304-1.863-4.497s-2.81-1.863-4.497-1.863z"></path>
</symbol>
<symbol id="icon-utilities" viewBox="0 0 32 32">
<title>utilities</title>
<path d="M26.69 17.431c0.068-0.501 0.1-0.97 0.1-1.431s-0.033-0.93-0.1-1.432l2.974-2.488c0.328-0.274 0.411-0.742 0.197-1.113l-2.811-4.869c-0.211-0.367-0.652-0.533-1.060-0.386l-3.638 1.33c-0.758-0.577-1.591-1.057-2.484-1.428l-0.668-3.823c-0.075-0.42-0.439-0.725-0.866-0.725h-5.621c-0.428 0-0.792 0.306-0.865 0.726l-0.669 3.823c-0.892 0.371-1.727 0.851-2.484 1.428l-3.637-1.329c-0.399-0.149-0.847 0.013-1.063 0.385l-2.811 4.869c-0.214 0.37-0.131 0.839 0.197 1.112l2.974 2.489c-0.067 0.497-0.1 0.967-0.1 1.432s0.033 0.934 0.1 1.431l-2.973 2.49c-0.329 0.273-0.411 0.741-0.198 1.111l2.811 4.871c0.215 0.37 0.659 0.53 1.061 0.384l3.638-1.329c0.758 0.578 1.593 1.057 2.484 1.428l0.669 3.822c0.074 0.421 0.437 0.727 0.865 0.727h5.622c0.426 0 0.79-0.305 0.866-0.727l0.668-3.822c0.891-0.371 1.725-0.85 2.484-1.428l3.639 1.331c0.401 0.145 0.848-0.019 1.059-0.387l2.811-4.869c0.215-0.371 0.131-0.839-0.197-1.112l-2.974-2.489zM5.861 18.46c0.239-0.198 0.355-0.513 0.303-0.823-0.102-0.586-0.152-1.121-0.152-1.637s0.049-1.051 0.152-1.637c0.052-0.309-0.064-0.624-0.302-0.822l-2.788-2.333 2.074-3.592 3.407 1.245c0.292 0.109 0.626 0.050 0.866-0.152 0.833-0.699 1.788-1.247 2.839-1.633 0.293-0.108 0.509-0.366 0.563-0.673l0.627-3.581h4.147l0.626 3.581c0.055 0.307 0.269 0.564 0.564 0.673 1.049 0.384 2.005 0.934 2.837 1.631 0.24 0.204 0.572 0.26 0.866 0.154l3.409-1.246 2.074 3.592-2.788 2.333c-0.241 0.201-0.355 0.516-0.302 0.823 0.102 0.587 0.151 1.122 0.151 1.637s-0.049 1.050-0.151 1.637c-0.053 0.307 0.061 0.622 0.302 0.823l2.788 2.335-2.074 3.591-3.408-1.246c-0.297-0.109-0.629-0.051-0.866 0.151-0.832 0.698-1.786 1.247-2.839 1.633-0.293 0.107-0.509 0.365-0.564 0.673l-0.626 3.581h-4.147l-0.627-3.581c-0.054-0.309-0.27-0.566-0.563-0.672-1.053-0.387-2.007-0.936-2.838-1.634-0.24-0.201-0.571-0.259-0.866-0.151l-3.408 1.246-2.074-3.591 2.787-2.334z"></path>
<path d="M15.523 22.379c3.516 0 6.378-2.862 6.378-6.378s-2.862-6.378-6.378-6.378c-3.517 0-6.378 2.861-6.378 6.378s2.861 6.378 6.378 6.378zM10.9 16.001c0-2.549 2.074-4.622 4.622-4.622s4.622 2.074 4.622 4.622-2.073 4.622-4.622 4.622-4.622-2.073-4.622-4.622z"></path>
</symbol>
<symbol id="icon-wedding" viewBox="0 0 32 32">
<title>wedding</title>
<path d="M26.096 7.423c-1.242-1.347-2.947-2.090-4.801-2.090-1.385 0-2.654 0.438-3.771 1.302-0.564 0.436-1.074 0.969-1.525 1.592-0.45-0.622-0.961-1.156-1.525-1.592-1.117-0.864-2.385-1.302-3.771-1.302-1.854 0-3.558 0.742-4.801 2.090-1.228 1.332-1.904 3.151-1.904 5.123 0 2.030 0.756 3.888 2.38 5.847 1.453 1.753 3.541 3.532 5.959 5.593l0.004 0.004c0.825 0.703 1.759 1.499 2.729 2.347 0.257 0.225 0.586 0.349 0.928 0.349s0.671-0.124 0.928-0.348c0.972-0.85 1.908-1.648 2.734-2.351 2.418-2.060 4.505-3.84 5.958-5.593 1.624-1.959 2.38-3.817 2.38-5.847 0-1.972-0.676-3.791-1.904-5.123zM24.537 17.496c-1.375 1.659-3.42 3.401-5.788 5.419-0.829 0.707-1.769 1.508-2.752 2.363-0.977-0.854-1.915-1.654-2.743-2.359l-0.004-0.004c-2.368-2.018-4.413-3.761-5.788-5.42-1.423-1.717-2.057-3.243-2.057-4.95 0-1.618 0.544-3.099 1.532-4.17 0.973-1.055 2.311-1.637 3.767-1.637 1.067 0 2.046 0.339 2.911 1.008 0.771 0.596 1.308 1.35 1.622 1.877 0.162 0.271 0.447 0.433 0.762 0.433s0.6-0.162 0.762-0.433c0.315-0.527 0.852-1.281 1.622-1.877 0.865-0.669 1.844-1.008 2.911-1.008 1.456 0 2.794 0.581 3.767 1.637 0.988 1.071 1.532 2.552 1.532 4.17 0 1.707-0.634 3.234-2.057 4.95z"></path>
</symbol>
<symbol id="icon-wifi" viewBox="0 0 32 32">
<title>wifi</title>
<path d="M29.714 12.491c-3.652-3.609-8.58-5.633-13.714-5.633s-10.062 2.024-13.714 5.633l2.721 2.721c2.926-2.875 6.864-4.486 10.966-4.486s8.040 1.611 10.966 4.486l2.775-2.721zM24.272 17.933c-2.185-2.128-5.114-3.318-8.163-3.318s-5.979 1.191-8.163 3.318l2.721 2.721c1.464-1.404 3.414-2.187 5.442-2.187s3.978 0.784 5.442 2.187l2.721-2.721zM18.83 23.375c-0.73-0.705-1.706-1.099-2.721-1.099s-1.991 0.394-2.721 1.099l2.721 2.721 2.721-2.721z"></path>
</symbol>
    <symbol id="icon-event-planning-tool" viewBox="0 0 32 32">
    <title>event-planning-tool</title>
    <path d="M19.833 1.867h-2.1v-1.167c0-0.386-0.314-0.7-0.7-0.7s-0.7 0.314-0.7 0.7v1.167h-10.266v-1.167c0-0.386-0.314-0.7-0.7-0.7s-0.7 0.314-0.7 0.7v1.167h-2.1c-1.416 0-2.567 1.151-2.567 2.567v15.4c0 1.416 1.151 2.567 2.567 2.567h10.233v-1.4h-10.233c-0.643 0-1.167-0.524-1.167-1.167v-10.966h19.6v3.933h1.4v-8.366c0-1.416-1.151-2.567-2.567-2.567zM1.4 7.467v-3.033c0-0.643 0.524-1.167 1.167-1.167h2.1v1.633c0 0.386 0.314 0.7 0.7 0.7s0.7-0.314 0.7-0.7v-1.633h10.266v1.633c0 0.386 0.314 0.7 0.7 0.7s0.7-0.314 0.7-0.7v-1.633h2.1c0.643 0 1.167 0.524 1.167 1.167v3.033h-19.6z"></path>
    <path d="M30.869 29.028c0.041-0.041 0.041-0.17 0.001-0.212l-3.618-3.347 2.724-1.525c0.119-0.073 0.109-0.13 0.103-0.165-0.007-0.043-0.027-0.116-0.076-0.126l-7.862-1.629c-0.029-0.005-0.084 0.004-0.141 0.059-0.028 0.027-0.041 0.048-0.046 0.059l1.697 7.848c0.007 0.012 0.072 0.077 0.155 0.093 0.004-0.004 0.093-0.035 0.146-0.12l1.483-2.758 3.521 3.521c0.042 0.042 0.171 0.043 0.213 0l1.699-1.698z"></path>
    <path d="M22.091 18.269c0.425 0 0.708-0.354 0.708-0.708v-2.123c0-0.425-0.354-0.708-0.708-0.708-0.425 0-0.708 0.354-0.708 0.708v2.123c0 0.354 0.283 0.708 0.708 0.708z"></path>
    <path d="M19.472 18.34l-1.557-1.486c-0.283-0.354-0.779-0.354-1.062 0-0.283 0.283-0.283 0.708 0 0.991l1.486 1.486c0.283 0.283 0.779 0.283 1.062 0 0.354-0.212 0.354-0.708 0.071-0.991z"></path>
    <path d="M14.73 22.020c0 0.425 0.354 0.708 0.708 0.708h2.123c0.425 0 0.708-0.354 0.708-0.708s-0.354-0.708-0.708-0.708h-2.123c-0.425 0-0.708 0.354-0.708 0.708z"></path>
    <path d="M18.41 24.71l-1.486 1.486c-0.283 0.283-0.283 0.779 0 1.062s0.779 0.283 1.062 0l1.486-1.486c0.283-0.283 0.283-0.779 0-1.062-0.354-0.283-0.779-0.283-1.062 0z"></path>
    <path d="M25.842 19.401l1.486-1.557c0.283-0.283 0.283-0.779 0-1.062s-0.779-0.283-1.062 0l-1.486 1.486c-0.283 0.283-0.283 0.779 0 1.062 0.283 0.354 0.779 0.354 1.062 0.071z"></path>
    </symbol>
  </defs>
</svg>
