<svg style="position: absolute; width: 0; height: 0; overflow: hidden;" version="1.1" xmlns="http://www.w3.org/2000/svg"
  xmlns:xlink="http://www.w3.org/1999/xlink">
  <defs>
    <symbol id="icon-magnifier" viewBox="0 0 30 32">
    <title>magnifier</title>
    <path d="M29.75 28.917l-8.565-8.565c1.659-2.049 2.658-4.653 2.658-7.489 0-6.573-5.348-11.921-11.921-11.921s-11.921 5.348-11.921 11.921c0 6.573 5.348 11.922 11.921 11.922 2.836 0 5.44-0.999 7.489-2.658l8.565 8.565c0.245 0.245 0.566 0.368 0.887 0.368s0.642-0.123 0.887-0.368c0.491-0.491 0.491-1.284 0-1.774zM11.921 22.274c-5.19 0-9.412-4.221-9.412-9.412s4.221-9.412 9.412-9.412c5.19 0 9.412 4.221 9.412 9.412s-4.221 9.412-9.412 9.412z"></path>
    </symbol>
    <symbol id="icon-tooltip" viewBox="0 0 32 32">
<title>tooltip</title>
<path d="M15.997 22.452c-0.552 0-1-0.448-1-1v-7.898c0-0.552 0.448-1 1-1s1 0.448 1 1v7.898c0 0.552-0.448 1-1 1z"></path>
<path d="M15.997 11.555c-0.265 0-0.52-0.105-0.705-0.295-0.19-0.185-0.295-0.44-0.295-0.705s0.105-0.52 0.295-0.705c0.37-0.375 1.040-0.375 1.41-0.005 0.19 0.19 0.295 0.445 0.295 0.71 0 0.26-0.105 0.52-0.295 0.705-0.185 0.19-0.44 0.295-0.705 0.295z"></path>
<path d="M15.962 28.999c-1.137 0-2.265-0.148-3.351-0.441-4.682-1.259-8.348-5.138-9.339-9.881-1.010-4.832 0.854-9.912 4.752-12.942 2.253-1.752 5.095-2.716 8.002-2.716 2.012 0 4.011 0.468 5.78 1.352 4.368 2.186 7.191 6.752 7.191 11.633 0 3.983-1.88 7.822-5.028 10.269-2.261 1.758-5.104 2.726-8.006 2.726zM16.025 5.018c-2.465 0-4.87 0.815-6.774 2.296-3.299 2.564-4.878 6.864-4.022 10.954 0.839 4.013 3.941 7.294 7.902 8.36 0.917 0.246 1.87 0.372 2.832 0.372 2.459 0 4.867-0.819 6.779-2.305 2.665-2.071 4.255-5.32 4.255-8.69 0-4.13-2.388-7.995-6.085-9.844-1.493-0.747-3.182-1.141-4.886-1.141z"></path>
</symbol>
    <symbol id="icon-close" viewBox="0 0 32 32">
    <title>close</title>
    <path d="M5.353 6.391c-0-0.206 0.061-0.407 0.175-0.578s0.277-0.304 0.467-0.383c0.19-0.079 0.399-0.099 0.601-0.059s0.387 0.139 0.533 0.285l19.216 19.216c0.195 0.195 0.305 0.459 0.305 0.735s-0.11 0.541-0.305 0.735c-0.195 0.195-0.459 0.305-0.735 0.305s-0.54-0.109-0.735-0.305l-19.216-19.216c-0.097-0.096-0.173-0.211-0.226-0.337s-0.079-0.261-0.079-0.398z"></path>
    <path d="M5.353 25.607c-0-0.136 0.027-0.272 0.079-0.398s0.129-0.241 0.226-0.337l19.216-19.216c0.195-0.195 0.459-0.305 0.735-0.305s0.54 0.11 0.735 0.305 0.305 0.46 0.305 0.735c0 0.276-0.11 0.54-0.305 0.735l-19.216 19.216c-0.146 0.145-0.331 0.245-0.533 0.285s-0.411 0.020-0.601-0.059c-0.19-0.079-0.352-0.212-0.467-0.383s-0.175-0.372-0.175-0.578z"></path>
    </symbol>
    <symbol id="icon-plus" viewBox="0 0 32 32">
    <title>plus</title>
    <path d="M1.677 16.735c-0.145-0.145-0.245-0.331-0.285-0.532s-0.020-0.411 0.059-0.601c0.079-0.19 0.212-0.352 0.383-0.467s0.372-0.175 0.578-0.175l27.176 0c0.276 0 0.54 0.11 0.735 0.305s0.305 0.46 0.305 0.735c0 0.276-0.11 0.54-0.305 0.735s-0.459 0.305-0.735 0.305l-27.176 0c-0.137 0-0.272-0.027-0.398-0.079s-0.241-0.129-0.337-0.226z"></path>
    <path d="M15.265 30.323c-0.097-0.096-0.174-0.211-0.226-0.337s-0.079-0.262-0.079-0.398l0-27.176c0-0.276 0.11-0.54 0.305-0.735s0.46-0.305 0.735-0.305 0.54 0.11 0.735 0.305c0.195 0.195 0.305 0.46 0.305 0.735l0 27.176c-0 0.206-0.061 0.407-0.175 0.578s-0.277 0.304-0.467 0.383c-0.19 0.079-0.399 0.099-0.601 0.059s-0.387-0.139-0.533-0.285z"></path>
    </symbol>
    <symbol id="icon-nav-menu-plus" viewBox="0 0 32 32">
    <title>nav-menu-plus</title>
    <path d="M30.308 15.017c-0.26-0.258-0.618-0.406-0.981-0.406h-11.937v-11.938c0-0.365-0.148-0.723-0.407-0.982-0.519-0.519-1.44-0.523-1.964 0-0.26 0.258-0.408 0.617-0.408 0.982v11.937h-11.937c-0.275 0-0.542 0.081-0.772 0.234-0.228 0.153-0.405 0.368-0.512 0.624-0.106 0.255-0.132 0.532-0.078 0.802s0.185 0.516 0.379 0.71l0.001 0.001c0.127 0.128 0.279 0.23 0.449 0.302 0.165 0.067 0.346 0.106 0.52 0.106 0.005 0 0.008 0 0.012 0h11.937v11.937c0 0.185 0.036 0.365 0.105 0.529 0.067 0.166 0.168 0.317 0.301 0.452l0.004 0.002c0.197 0.197 0.444 0.327 0.712 0.38 0.090 0.017 0.18 0.026 0.271 0.026 0.181 0 0.362-0.036 0.53-0.106 0.251-0.103 0.466-0.279 0.625-0.512 0.153-0.231 0.233-0.497 0.233-0.772v-11.937h11.935c0.002 0 0.005 0 0.007 0 0.361 0 0.716-0.149 0.978-0.407 0.257-0.26 0.406-0.618 0.406-0.982s-0.149-0.723-0.409-0.983z"></path>
    </symbol>
    <symbol id="icon-location-pin" viewBox="0 0 32 32">
    <title>location-pin</title>
    <path d="M16 2.667c-2.829 0-5.542 1.124-7.542 3.124s-3.124 4.713-3.124 7.542c-0.009 2.654 0.981 5.215 2.773 7.173l7.387 8.593c0.063 0.073 0.14 0.132 0.228 0.172s0.183 0.061 0.279 0.061c0.096 0 0.191-0.021 0.279-0.061s0.165-0.099 0.228-0.172l7.387-8.593c1.792-1.958 2.782-4.519 2.773-7.173 0-2.829-1.124-5.542-3.124-7.542s-4.713-3.124-7.543-3.124zM22.88 19.64l-6.88 8.007-6.88-8c-1.224-1.335-2.033-2.998-2.328-4.785s-0.064-3.622 0.665-5.28c0.729-1.658 1.926-3.068 3.443-4.058s3.289-1.517 5.101-1.517c1.811 0 3.584 0.527 5.101 1.517s2.713 2.4 3.443 4.058c0.729 1.658 0.961 3.493 0.665 5.28s-1.104 3.45-2.329 4.785v-0.007z"></path>
    <path d="M16 8.666c-0.923 0-1.825 0.274-2.593 0.786s-1.366 1.242-1.719 2.094-0.446 1.791-0.266 2.696c0.18 0.905 0.625 1.737 1.277 2.389s1.484 1.097 2.389 1.277c0.905 0.18 1.843 0.088 2.696-0.265s1.581-0.951 2.094-1.719 0.787-1.67 0.787-2.593c0-1.238-0.492-2.425-1.367-3.3s-2.062-1.367-3.3-1.367zM16 16.666c-0.659 0-1.304-0.195-1.852-0.562s-0.975-0.887-1.228-1.496-0.318-1.279-0.19-1.926c0.129-0.647 0.446-1.241 0.912-1.707s1.060-0.784 1.707-0.912c0.647-0.129 1.317-0.063 1.926 0.19s1.13 0.68 1.496 1.228c0.366 0.548 0.562 1.193 0.562 1.852 0 0.884-0.351 1.732-0.976 2.357s-1.473 0.976-2.357 0.976z"></path>
    </symbol>
    <symbol id="icon-clock" viewBox="0 0 32 32">
    <title>clock</title>
    <path d="M16.107 4c-2.395 0-4.735 0.71-6.726 2.040s-3.543 3.221-4.459 5.433c-0.916 2.212-1.156 4.646-0.689 6.995s1.62 4.506 3.313 6.199 3.85 2.846 6.199 3.313c2.348 0.467 4.783 0.227 6.995-0.689s4.103-2.468 5.433-4.459c1.33-1.991 2.040-4.332 2.040-6.726-0.003-3.21-1.28-6.288-3.549-8.557s-5.347-3.546-8.557-3.549zM16.107 27.060c-2.166 0-4.284-0.642-6.086-1.846s-3.205-2.914-4.034-4.916c-0.829-2.001-1.046-4.204-0.623-6.329s1.466-4.077 2.998-5.608c1.532-1.532 3.484-2.575 5.608-2.998s4.327-0.206 6.329 0.623c2.001 0.829 3.712 2.233 4.916 4.034s1.846 3.919 1.846 6.086c-0.003 2.904-1.158 5.689-3.211 7.742s-4.838 3.209-7.742 3.212z"></path>
    <path d="M20.141 16.833l-3.459-1.153v-6.491c0-0.153-0.061-0.3-0.169-0.408s-0.255-0.169-0.408-0.169c-0.153 0-0.3 0.061-0.408 0.169s-0.169 0.255-0.169 0.408v6.918c-0.001 0.12 0.037 0.238 0.107 0.335s0.17 0.17 0.285 0.207l3.828 1.28c0.061 0.012 0.124 0.012 0.185 0 0.121-0.002 0.239-0.042 0.336-0.114s0.169-0.174 0.206-0.29c0.042-0.136 0.031-0.283-0.031-0.411s-0.17-0.228-0.303-0.28z"></path>
    </symbol>
    <symbol id="icon-phone" viewBox="0 0 32 32">
    <title>phone</title>
    <path d="M25.333 30.667c2.787 0 4.667-1.96 5.22-5.387 0.063-0.442 0.036-0.893-0.078-1.324s-0.315-0.836-0.589-1.189l-0.107-0.1-4.047-3.2c-0.611-0.458-1.362-0.692-2.125-0.663s-1.493 0.32-2.068 0.823l-1.747 1.653c-3.64-0.827-8.867-5.547-9.127-9.027l1.727-1.82c0.495-0.578 0.777-1.307 0.8-2.068s-0.215-1.506-0.674-2.112l-3.187-4.033c-0.033-0.044-0.074-0.083-0.12-0.113-0.352-0.273-0.755-0.473-1.186-0.587s-0.88-0.142-1.321-0.080c-3.413 0.56-5.373 2.44-5.373 5.227 0 6.365 2.529 12.47 7.029 16.971s10.605 7.029 16.971 7.029zM6.92 2.767c0.095-0.007 0.191-0.007 0.287 0 0.411 0.002 0.811 0.13 1.147 0.367l3.113 3.933c0.271 0.36 0.412 0.8 0.401 1.25s-0.173 0.883-0.461 1.23l-1.893 2c-0.115 0.123-0.179 0.285-0.18 0.453 0 4.293 6.193 9.933 10.56 10.667 0.101 0.017 0.205 0.010 0.304-0.020s0.188-0.082 0.263-0.153l2-1.873c0.344-0.293 0.777-0.461 1.228-0.477s0.895 0.122 1.258 0.39l3.967 3.12c0.299 0.414 0.424 0.929 0.347 1.433-0.327 1.933-1.26 4.247-3.927 4.247-6.012 0-11.777-2.388-16.028-6.639s-6.639-10.016-6.639-16.028c0-2.667 2.313-3.6 4.253-3.9z"></path>
    </symbol>
    <symbol id="icon-arrow" viewBox="0 0 32 32">
    <title>arrow</title>
    <path d="M22.2 16.007h-21.057v1.136h20.932c-0.11 0.105-0.22 0.231-0.33 0.357-0.119 0.137-0.239 0.273-0.358 0.382-1.431 1.857-2.385 3.933-3.101 6.008v0.109c3.816-3.714 8.348-6.336 13.714-7.429-5.317-1.082-9.814-3.666-13.608-7.326-0.026-0.063-0.055-0.103-0.106-0.103 0.035 0.034 0.071 0.069 0.106 0.103 0.012 0.028 0.023 0.060 0.035 0.096 0.024 0.071 0.052 0.155 0.098 0.238 0.835 2.294 1.908 4.479 3.578 6.336 0.033 0.030 0.065 0.059 0.097 0.091z"></path>
    </symbol>
    <symbol id="icon-arrow-right" viewBox="0 0 30 32">
      <title>arrow-right</title>
      <path d="M4.158 3.543c1.375 3.778 3.143 7.377 5.893 10.436 0.197 0.18 0.393 0.36 0.589 0.72 0.196 0.18 0.196 0.36 0 0.54s-0.393 0.36-0.589 0.72c-0.393 0.36-0.786 0.9-1.179 1.26-2.357 3.059-3.928 6.477-5.107 9.896v0.18c6.285-6.118 13.749-10.436 22.588-12.235-8.839-1.799-16.303-6.118-22.588-12.235 0.196 0 0.196 0.36 0.393 0.72z"></path>
    </symbol>
    <!-- Social Media Icons -->
    <symbol id="icon-facebook" viewBox="0 0 32 32">
      <title>facebook</title>
      <path
        d="M24.308 0.23v5.077h-3.020q-1.654 0-2.23 0.692t-0.577 2.077v3.635h5.634l-0.75 5.692h-4.885v14.596h-5.884v-14.596h-4.904v-5.692h4.904v-4.192q0-3.576 2-5.548t5.326-1.971q2.827 0 4.384 0.23z">
      </path>
    </symbol>
    <symbol id="icon-twitter" viewBox="0 0 32 32">
      <title>twitter</title>
      <path
        d="M32 6.093q-1.36 1.99-3.289 3.391 0.020 0.284 0.020 0.853 0 2.639-0.772 5.269t-2.346 5.045-3.746 4.274-5.238 2.964-6.558 1.106q-5.502 0-10.070-2.944 0.711 0.081 1.584 0.081 4.569 0 8.142-2.802-2.132-0.041-3.817-1.31t-2.315-3.238q0.67 0.101 1.238 0.101 0.873 0 1.726-0.223-2.274-0.467-3.767-2.264t-1.493-4.173v-0.081q1.38 0.772 2.964 0.832-1.341-0.894-2.132-2.335t-0.791-3.127q0-1.786 0.894-3.31 2.457 3.026 5.98 4.843t7.543 2.020q-0.163-0.772-0.163-1.502 0-2.721 1.919-4.639t4.639-1.919q2.843 0 4.791 2.071 2.213-0.426 4.163-1.584-0.752 2.335-2.883 3.615 1.889-0.204 3.776-1.015z">
      </path>
    </symbol>
    <symbol id="icon-instagram" viewBox="0 0 32 32">
      <title>instagram</title>
      <path
        d="M21.333 16q0-2.209-1.562-3.771t-3.771-1.562-3.771 1.562-1.562 3.771 1.562 3.771 3.771 1.562 3.771-1.562 1.562-3.771zM24.208 16q0 3.417-2.396 5.812t-5.812 2.396-5.812-2.396-2.396-5.812 2.396-5.812 5.812-2.396 5.812 2.396 2.396 5.812zM26.458 7.459q0 0.792-0.562 1.355t-1.355 0.562-1.355-0.562-0.562-1.355 0.562-1.355 1.355-0.562 1.355 0.562 0.562 1.355zM15.999 2.875q-0.146 0-1.594-0.010t-2.198 0-2.010 0.063-2.146 0.209-1.49 0.385q-1.042 0.417-1.833 1.209t-1.209 1.833q-0.229 0.604-0.385 1.49t-0.209 2.146-0.063 2.010 0 2.198 0.010 1.594-0.010 1.594 0 2.198 0.063 2.010 0.209 2.146 0.385 1.49q0.417 1.042 1.209 1.833t1.833 1.209q0.604 0.229 1.49 0.385t2.146 0.209 2.010 0.063 2.198 0 1.594-0.011 1.594 0.011 2.198 0 2.010-0.063 2.146-0.209 1.49-0.385q1.042-0.416 1.833-1.209t1.209-1.833q0.229-0.604 0.385-1.49t0.209-2.146 0.063-2.010 0-2.198-0.011-1.594 0.011-1.594 0-2.198-0.063-2.010-0.209-2.146-0.385-1.49q-0.416-1.042-1.209-1.833t-1.833-1.209q-0.604-0.229-1.49-0.385t-2.146-0.209-2.010-0.063-2.198 0-1.594 0.010zM32 16q0 4.771-0.104 6.605-0.209 4.333-2.583 6.708t-6.708 2.583q-1.833 0.104-6.605 0.104t-6.605-0.104q-4.333-0.209-6.708-2.583t-2.583-6.708q-0.104-1.833-0.104-6.605t0.104-6.605q0.209-4.333 2.583-6.708t6.708-2.583q1.833-0.104 6.605-0.104t6.605 0.104q4.333 0.209 6.708 2.583t2.583 6.708q0.104 1.833 0.104 6.605z">
      </path>
    </symbol>
    <symbol id="icon-youtube" viewBox="0 0 32 32">
      <title>youtube</title>
      <path
        d="M31.341 8.303c-0.369-1.371-1.45-2.452-2.82-2.821-2.504-0.685-12.521-0.685-12.521-0.685s-10.016 0-12.52 0.659c-1.344 0.369-2.452 1.476-2.82 2.847-0.659 2.504-0.659 7.697-0.659 7.697s0 5.219 0.659 7.697c0.369 1.371 1.45 2.451 2.821 2.82 2.53 0.685 12.521 0.685 12.521 0.685s10.016 0 12.52-0.659c1.371-0.369 2.451-1.45 2.821-2.82 0.659-2.504 0.659-7.697 0.659-7.697s0.026-5.219-0.659-7.723zM12.811 20.797v-9.595l8.329 4.797-8.329 4.797z">
      </path>
    </symbol>
    <symbol id="icon-pinterest" viewBox="0 0 32 32">
      <title>pinterest</title>
      <path
        d="M3.693 11.479q0-2.077 0.721-3.913t1.99-3.201 2.923-2.365 3.558-1.5 3.884-0.5q3.038 0 5.654 1.279t4.249 3.721 1.635 5.519q0 1.846-0.365 3.615t-1.153 3.404-1.923 2.875-2.788 1.98-3.634 0.741q-1.307 0-2.596-0.615t-1.846-1.692q-0.193 0.75-0.538 2.163t-0.452 1.826-0.394 1.365-0.5 1.365-0.615 1.202-0.884 1.49-1.192 1.664l-0.269 0.096-0.173-0.193q-0.289-3.020-0.289-3.615 0-1.769 0.414-3.971t1.279-5.529 1-3.904q-0.615-1.25-0.615-3.25 0-1.596 1-3t2.538-1.404q1.173 0 1.826 0.779t0.654 1.971q0 1.27-0.846 3.673t-0.846 3.596q0 1.211 0.866 2.009t2.096 0.798q1.057 0 1.961-0.48t1.51-1.307 1.077-1.826 0.731-2.125 0.384-2.134 0.125-1.914q0-3.326-2.105-5.183t-5.49-1.855q-3.845 0-6.422 2.491t-2.577 6.317q0 0.846 0.24 1.635t0.519 1.25 0.519 0.876 0.24 0.587q0 0.538-0.289 1.404t-0.712 0.866q-0.039 0-0.327-0.058-0.981-0.289-1.74-1.077t-1.173-1.818-0.625-2.077-0.211-2.048z">
      </path>
    </symbol>
    <symbol id="icon-linkedin" viewBox="0 0 32 32">
      <title>linkedin</title>
      <path
        d="M11.429 10.286h6.325v3.242h0.090c0.88-1.578 3.034-3.242 6.244-3.242 6.677 0 7.911 4.156 7.911 9.562v11.009h-6.593v-9.76c0-2.328-0.048-5.322-3.43-5.322-3.434 0-3.958 2.535-3.958 5.153v9.929h-6.591v-20.571z">
      </path>
      <path d="M0 10.286h6.857v20.571h-6.857v-20.571z"></path>
      <path
        d="M6.857 4.571c0 1.894-1.535 3.429-3.429 3.429s-3.429-1.535-3.429-3.429c0-1.894 1.535-3.429 3.429-3.429s3.429 1.535 3.429 3.429z">
      </path>
    </symbol>
    <symbol id="icon-link" viewBox="0 0 32 32">
      <title>link</title>
      <path
        d="M28.471 3.529c-2.571-2.571-6.755-2.572-9.327-0.001l0.001 0.001-4.069 4.069 1.878 1.878 4.069-4.071c1.536-1.534 4.034-1.533 5.57 0.002s1.535 4.034 0 5.571l-6.106 6.106c-0.744 0.744-1.733 1.154-2.785 1.154s-2.041-0.41-2.785-1.154l-1.878 1.878c1.246 1.246 2.902 1.932 4.663 1.932s3.418-0.686 4.663-1.932l6.106-6.106c2.571-2.572 2.571-6.756-0-9.326z">
      </path>
      <path
        d="M10.977 26.594c-1.536 1.535-4.035 1.535-5.571-0.001s-1.536-4.035-0-5.571l6.105-6.105c1.536-1.536 4.035-1.536 5.571 0l1.878-1.878c-2.572-2.571-6.756-2.572-9.327 0l-6.106 6.105c-2.571 2.571-2.571 6.756 0 9.327 1.286 1.286 2.975 1.929 4.664 1.929s3.377-0.643 4.663-1.928l0-0 4.070-4.071-1.878-1.878-4.069 4.071z">
      </path>
    </symbol>
    <symbol id="icon-tiktok" viewBox="0 0 32 32">
      <title>tiktok</title>
      <path
        d="M30.020 8.024c-1.826 0-3.511-0.605-4.864-1.626-1.552-1.17-2.667-2.886-3.061-4.864-0.098-0.489-0.15-0.993-0.155-1.51h-5.217v14.255l-0.006 7.808c0 2.087-1.359 3.858-3.244 4.48-0.547 0.181-1.137 0.266-1.752 0.233-0.785-0.043-1.521-0.28-2.16-0.663-1.361-0.814-2.283-2.29-2.308-3.979-0.039-2.639 2.094-4.791 4.732-4.791 0.521 0 1.021 0.085 1.489 0.239v-5.297c-0.494-0.073-0.996-0.111-1.504-0.111-2.887 0-5.587 1.2-7.517 3.362-1.459 1.634-2.334 3.718-2.469 5.904-0.177 2.871 0.874 5.601 2.911 7.614 0.299 0.296 0.614 0.57 0.942 0.823 1.747 1.344 3.883 2.073 6.132 2.073 0.508 0 1.011-0.038 1.504-0.111 2.101-0.311 4.040-1.273 5.57-2.786 1.88-1.858 2.919-4.325 2.93-6.951l-0.027-11.66c0.897 0.692 1.878 1.264 2.93 1.709 1.637 0.691 3.372 1.041 5.159 1.040v-5.194c0.001 0.001-0.014 0.001-0.015 0.001v0z">
      </path>
    </symbol>
    <!-- Form Icons -->
    <symbol id="icon-checkbox" viewBox="0 0 32 32">
      <title>checkbox</title>
      <path
        d="M28 0h-24c-2.2 0-4 1.8-4 4v24c0 2.2 1.8 4 4 4h24c2.2 0 4-1.8 4-4v-24c0-2.2-1.8-4-4-4zM28 28h-24v-24h24v24z">
      </path>
    </symbol>
    <symbol id="icon-checkbox-checked" viewBox="0 0 32 32">
      <title>checkbox-checked</title>
      <path
        d="M28 0h-24c-2.2 0-4 1.8-4 4v24c0 2.2 1.8 4 4 4h24c2.2 0 4-1.8 4-4v-24c0-2.2-1.8-4-4-4zM14 24.828l-7.414-7.414 2.828-2.828 4.586 4.586 9.586-9.586 2.828 2.828-12.414 12.414z">
      </path>
    </symbol>
    <symbol id="icon-radio" viewBox="0 0 32 32">
      <title>radio</title>
      <path
        d="M16 0c-8.837 0-16 7.163-16 16s7.163 16 16 16 16-7.163 16-16-7.163-16-16-16zM16 28c-6.627 0-12-5.373-12-12s5.373-12 12-12c6.627 0 12 5.373 12 12s-5.373 12-12 12z">
      </path>
    </symbol>
    <symbol id="icon-radio-selected" viewBox="0 0 32 32">
      <title>radio-selected</title>
      <path
        d="M16 0c-8.837 0-16 7.163-16 16s7.163 16 16 16 16-7.163 16-16-7.163-16-16-16zM16 20c-2.209 0-4-1.791-4-4s1.791-4 4-4c2.209 0 4 1.791 4 4s-1.791 4-4 4z">
      </path>
    </symbol>

    <!-- Loop Video Component Icons -->
    <symbol id="icon-play-loop" viewBox="0 0 23 32">
      <title>play</title>
      <path d="M22.268 15.932l-21.679 14.465v-28.93l21.679 14.465z"></path>
    </symbol>
    <symbol id="icon-pause-loop" viewBox="0 0 32 32">
    <title>pause-loop</title>
    <path fill="#fff" style="fill: var(--color4, #fff)" d="M6.857 29.714v-27.429h4.571v27.429h-4.571z"></path>
    <path fill="#fff" style="fill: var(--color4, #fff)" d="M20.571 29.714v-27.429h4.571v27.429h-4.571z"></path>
    </symbol>

    <!-- General Icons -->
    <symbol id="icon-chevron-down" viewBox="0 0 32 32">
    <path d="M27.68 9.319c-0.426-0.426-1.117-0.426-1.543 0l-10.137 10.138-10.138-10.138c-0.426-0.426-1.117-0.426-1.543 0s-0.426 1.117 0 1.543l10.909 10.909c0.205 0.205 0.482 0.32 0.771 0.32s0.567-0.115 0.771-0.32l10.909-10.909c0.426-0.426 0.426-1.117 0-1.543z"></path>
    </symbol>
    <symbol id="icon-chevron-left" viewBox="0 0 32 32">
    <path d="M11.634 16l10.138-10.138c0.426-0.426 0.426-1.117 0-1.543s-1.117-0.426-1.543 0l-10.909 10.909c-0.205 0.204-0.32 0.482-0.32 0.771s0.115 0.567 0.32 0.771l10.909 10.909c0.213 0.213 0.492 0.32 0.771 0.32s0.558-0.107 0.771-0.32c0.426-0.426 0.426-1.117 0-1.543l-10.138-10.137z"></path>
    </symbol>
    <symbol id="icon-chevron-right" viewBox="0 0 32 32">
    <path d="M21.771 15.228l-10.909-10.909c-0.426-0.426-1.117-0.426-1.543 0s-0.426 1.117 0 1.543l10.138 10.137-10.138 10.138c-0.426 0.426-0.426 1.117 0 1.543 0.213 0.213 0.492 0.32 0.771 0.32s0.558-0.107 0.771-0.32l10.909-10.909c0.205-0.205 0.32-0.482 0.32-0.771s-0.115-0.567-0.32-0.771z"></path>
    </symbol>
    <symbol id="icon-chevron-up" viewBox="0 0 32 32">
    <path d="M27.68 20.229l-10.909-10.909c-0.204-0.205-0.482-0.319-0.771-0.319s-0.567 0.115-0.771 0.32l-10.909 10.909c-0.426 0.426-0.426 1.117 0 1.543s1.117 0.426 1.543 0l10.137-10.138 10.138 10.138c0.213 0.213 0.492 0.32 0.771 0.32s0.558-0.107 0.771-0.32c0.426-0.426 0.426-1.117 0-1.543z"></path>
    </symbol>
    <symbol id="icon-send" viewBox="0 0 24 24">
      <title>send</title>
      <path d="M2.016 21v-6.984l15-2.016-15-2.016v-6.984l21 9z"></path>
    </symbol>
    <symbol id="icon-location" viewBox="0 0 32 32">
      <title>location</title>
      <path class="path1"
        d="M26.501 7.964c-0.114-0.427-0.345-0.882-0.516-1.28-2.048-4.921-6.522-6.684-10.134-6.684-4.836 0-10.162 3.243-10.873 9.927v1.366c0 0.057 0.020 0.569 0.048 0.825 0.399 3.185 2.912 6.571 4.789 9.756 2.020 3.413 4.115 6.77 6.192 10.126 1.28-2.19 2.556-4.409 3.807-6.542 0.341-0.626 0.737-1.252 1.078-1.849 0.227-0.398 0.662-0.796 0.861-1.166 2.020-3.698 5.27-7.424 5.27-11.093v-1.507c0-0.398-0.493-1.792-0.521-1.877zM15.94 14.82c-1.422 0-2.978-0.711-3.746-2.674-0.114-0.312-0.105-0.939-0.105-0.996v-0.882c0-2.502 2.125-3.64 3.973-3.64 2.276 0 4.036 1.821 4.036 4.096s-1.883 4.096-4.158 4.096z">
      </path>
    </symbol>
  </defs>
</svg>
